<svg width="595" height="842" viewBox="0 0 595 842" fill="none" xmlns="http://www.w3.org/2000/svg">
<rect width="595" height="842" fill="url(#paint0_linear_7_2)"/>
<rect width="595" height="107" fill="url(#paint1_linear_7_2)"/>
<path d="M22.1 89V74H27.0167C28.3722 74 29.55 74.2222 30.55 74.6667C31.5611 75.1111 32.3944 75.7 33.05 76.4333C33.7056 77.1667 34.1944 77.9778 34.5167 78.8667C34.8389 79.7444 35 80.6222 35 81.5C35 82.3778 34.8389 83.2611 34.5167 84.15C34.1944 85.0278 33.7056 85.8333 33.05 86.5667C32.3944 87.3 31.5611 87.8889 30.55 88.3333C29.55 88.7778 28.3722 89 27.0167 89H22.1ZM24 87.3H26.8167C27.9722 87.3 28.9444 87.1222 29.7333 86.7667C30.5222 86.4 31.1611 85.9278 31.65 85.35C32.1389 84.7611 32.4889 84.1278 32.7 83.45C32.9222 82.7722 33.0333 82.1222 33.0333 81.5C33.0333 80.8778 32.9222 80.2278 32.7 79.55C32.4889 78.8722 32.1389 78.2444 31.65 77.6667C31.1611 77.0778 30.5222 76.6056 29.7333 76.25C28.9444 75.8833 27.9722 75.7 26.8167 75.7H24V87.3ZM42.3745 89.2C41.33 89.2 40.3911 88.9667 39.5578 88.5C38.7356 88.0333 38.0856 87.4 37.6078 86.6C37.1411 85.7889 36.9078 84.8889 36.9078 83.9C36.9078 82.9556 37.1356 82.1 37.5911 81.3333C38.0467 80.5556 38.6578 79.9389 39.4245 79.4833C40.2023 79.0278 41.0578 78.8 41.9911 78.8C42.9134 78.8 43.7578 79.0222 44.5245 79.4667C45.2911 79.9 45.9023 80.4889 46.3578 81.2333C46.8134 81.9778 47.0411 82.8222 47.0411 83.7667V84.5H40.5078C40.2189 84.5 39.9245 84.4889 39.6245 84.4667C39.3245 84.4444 39.03 84.4111 38.7411 84.3667C38.8634 85.2556 39.2634 86 39.9411 86.6C40.63 87.2 41.4467 87.5 42.3911 87.5C43.0245 87.5 43.6134 87.3556 44.1578 87.0667C44.7023 86.7778 45.1411 86.3944 45.4745 85.9167L45.9745 87.9667C45.4967 88.3556 44.9467 88.6611 44.3245 88.8833C43.7134 89.0944 43.0634 89.2 42.3745 89.2ZM38.6911 83.15C39.2911 83.05 39.8967 83 40.5078 83H43.8245C44.0689 83 44.3078 83.0111 44.5411 83.0333C44.7856 83.0444 45.03 83.0611 45.2745 83.0833C45.1189 82.3056 44.73 81.6667 44.1078 81.1667C43.4856 80.6556 42.78 80.4 41.9911 80.4C41.18 80.4 40.4689 80.6722 39.8578 81.2167C39.2467 81.75 38.8578 82.3944 38.6911 83.15ZM52.0271 89.2C51.516 89.2 50.966 89.1056 50.3771 88.9167C49.7993 88.7167 49.2993 88.3889 48.8771 87.9333L49.3771 85.9667C49.6882 86.4889 50.0882 86.9056 50.5771 87.2167C51.066 87.5167 51.5882 87.6667 52.1438 87.6667C52.6771 87.6667 53.0771 87.5389 53.3438 87.2833C53.6104 87.0167 53.7438 86.6944 53.7438 86.3167C53.7438 85.8833 53.5993 85.5667 53.3104 85.3667C53.0326 85.1667 52.7826 85.0278 52.5604 84.95L51.2104 84.4333C50.966 84.3333 50.6715 84.1889 50.3271 84C49.9826 83.8 49.6826 83.5167 49.4271 83.15C49.1715 82.7833 49.0438 82.3056 49.0438 81.7167C49.0438 81.1833 49.1715 80.6944 49.4271 80.25C49.6826 79.8056 50.0437 79.4556 50.5104 79.2C50.9771 78.9333 51.5271 78.8 52.1604 78.8C52.6604 78.8 53.1826 78.8889 53.7271 79.0667C54.2715 79.2444 54.7326 79.5444 55.1104 79.9667L54.6104 81.9333C54.3438 81.4444 53.9826 81.0556 53.5271 80.7667C53.0715 80.4778 52.5993 80.3333 52.1104 80.3333C51.6549 80.3333 51.2937 80.4611 51.0271 80.7167C50.7715 80.9722 50.6438 81.2667 50.6438 81.6C50.6438 81.8667 50.7326 82.1056 50.9104 82.3167C51.0882 82.5278 51.3549 82.7 51.7104 82.8333L53.0604 83.35C53.3049 83.4389 53.6049 83.5833 53.9604 83.7833C54.3271 83.9833 54.6493 84.2722 54.9271 84.65C55.2049 85.0278 55.3438 85.5389 55.3438 86.1833C55.3438 87.0833 55.0271 87.8111 54.3938 88.3667C53.7715 88.9222 52.9826 89.2 52.0271 89.2ZM62.5516 89.2C61.5738 89.2 60.6849 88.9667 59.8849 88.5C59.0849 88.0333 58.446 87.4056 57.9682 86.6167C57.4905 85.8278 57.2516 84.9556 57.2516 84C57.2516 83.0444 57.4905 82.1722 57.9682 81.3833C58.446 80.5944 59.0849 79.9667 59.8849 79.5C60.6849 79.0333 61.5738 78.8 62.5516 78.8C63.2738 78.8 63.9516 78.9278 64.5849 79.1833C65.2182 79.4389 65.7738 79.7778 66.2516 80.2L65.7016 82.4667C65.4238 81.9111 65.0016 81.4444 64.4349 81.0667C63.8793 80.6889 63.246 80.5 62.5349 80.5C61.8905 80.5 61.3016 80.6611 60.7682 80.9833C60.246 81.2944 59.8293 81.7167 59.5182 82.25C59.2071 82.7722 59.0516 83.3556 59.0516 84C59.0516 84.6333 59.2071 85.2167 59.5182 85.75C59.8293 86.2833 60.246 86.7111 60.7682 87.0333C61.3016 87.3444 61.8905 87.5 62.5349 87.5C63.246 87.5 63.8793 87.3167 64.4349 86.95C65.0016 86.5833 65.4238 86.1111 65.7016 85.5333L66.2516 87.8C65.7738 88.2222 65.2182 88.5611 64.5849 88.8167C63.9516 89.0722 63.2738 89.2 62.5516 89.2ZM68.4516 89V79H70.1182V80.8333C70.4738 80.2444 70.946 79.7778 71.5349 79.4333C72.1238 79.0778 72.8238 78.9 73.6349 78.9L74.0849 80.7C73.8738 80.6333 73.6293 80.6 73.3516 80.6C72.4182 80.6 71.6682 80.9 71.1016 81.5C70.5349 82.0889 70.2516 82.9333 70.2516 84.0333V89H68.4516ZM75.9516 89V79H77.7516V89H75.9516ZM76.8516 77.2C76.5182 77.2 76.2349 77.0833 76.0016 76.85C75.7682 76.6167 75.6516 76.3333 75.6516 76C75.6516 75.6556 75.7682 75.3722 76.0016 75.15C76.2349 74.9167 76.5182 74.8 76.8516 74.8C77.196 74.8 77.4793 74.9167 77.7016 75.15C77.9349 75.3722 78.0516 75.6556 78.0516 76C78.0516 76.3333 77.9349 76.6167 77.7016 76.85C77.4793 77.0833 77.196 77.2 76.8516 77.2ZM82.1104 89V80.5H79.8438V79H82.1604V75.6667H83.8604V79H86.3438V80.5H83.9104V89H82.1104ZM88.4438 89V79H90.2437V89H88.4438ZM89.3438 77.2C89.0104 77.2 88.7271 77.0833 88.4938 76.85C88.2604 76.6167 88.1438 76.3333 88.1438 76C88.1438 75.6556 88.2604 75.3722 88.4938 75.15C88.7271 74.9167 89.0104 74.8 89.3438 74.8C89.6882 74.8 89.9715 74.9167 90.1938 75.15C90.4271 75.3722 90.5438 75.6556 90.5438 76C90.5438 76.3333 90.4271 76.6167 90.1938 76.85C89.9715 77.0833 89.6882 77.2 89.3438 77.2ZM97.0859 89.5L92.0359 79H94.0859L96.1193 83.3333C96.3082 83.7222 96.4859 84.1056 96.6526 84.4833C96.8193 84.8611 96.9804 85.3222 97.1359 85.8667C97.3026 85.3222 97.4693 84.8611 97.6359 84.4833C97.8137 84.0944 97.9915 83.7111 98.1693 83.3333L100.219 79H102.136L97.0859 89.5ZM108.01 89.2C107.044 89.2 106.16 88.9667 105.36 88.5C104.56 88.0333 103.922 87.4056 103.444 86.6167C102.977 85.8278 102.744 84.9556 102.744 84C102.744 83.0333 102.977 82.1611 103.444 81.3833C103.922 80.5944 104.56 79.9667 105.36 79.5C106.16 79.0333 107.044 78.8 108.01 78.8C108.988 78.8 109.872 79.0333 110.66 79.5C111.46 79.9667 112.094 80.5944 112.56 81.3833C113.038 82.1611 113.277 83.0333 113.277 84C113.277 84.9556 113.038 85.8278 112.56 86.6167C112.094 87.4056 111.46 88.0333 110.66 88.5C109.872 88.9667 108.988 89.2 108.01 89.2ZM108.01 87.5C108.655 87.5 109.238 87.3444 109.76 87.0333C110.283 86.7111 110.699 86.2889 111.01 85.7667C111.322 85.2333 111.477 84.6444 111.477 84C111.477 83.3556 111.322 82.7722 111.01 82.25C110.699 81.7167 110.283 81.2944 109.76 80.9833C109.238 80.6611 108.655 80.5 108.01 80.5C107.366 80.5 106.783 80.6611 106.26 80.9833C105.738 81.2944 105.322 81.7167 105.01 82.25C104.699 82.7722 104.544 83.3556 104.544 84C104.544 84.6444 104.699 85.2333 105.01 85.7667C105.322 86.2889 105.738 86.7111 106.26 87.0333C106.783 87.3444 107.366 87.5 108.01 87.5ZM125.047 89.1333C124.136 89.1333 123.303 88.9056 122.547 88.45C121.792 87.9833 121.186 87.3611 120.731 86.5833C120.286 85.8056 120.064 84.9444 120.064 84C120.064 83.0556 120.286 82.1944 120.731 81.4167C121.186 80.6389 121.792 80.0222 122.547 79.5667C123.303 79.1 124.136 78.8667 125.047 78.8667C125.703 78.8667 126.32 78.9833 126.897 79.2167C127.475 79.45 127.986 79.7722 128.431 80.1833V73H130.231V89H128.564V87.6833C128.12 88.1278 127.592 88.4833 126.981 88.75C126.381 89.0056 125.736 89.1333 125.047 89.1333ZM125.281 87.5C125.914 87.5 126.486 87.3444 126.997 87.0333C127.52 86.7111 127.931 86.2889 128.231 85.7667C128.542 85.2333 128.697 84.6444 128.697 84C128.697 83.3556 128.542 82.7722 128.231 82.25C127.931 81.7167 127.52 81.2944 126.997 80.9833C126.486 80.6611 125.914 80.5 125.281 80.5C124.647 80.5 124.07 80.6611 123.547 80.9833C123.036 81.2944 122.625 81.7167 122.314 82.25C122.014 82.7722 121.864 83.3556 121.864 84C121.864 84.6444 122.014 85.2333 122.314 85.7667C122.625 86.2889 123.036 86.7111 123.547 87.0333C124.07 87.3444 124.647 87.5 125.281 87.5ZM137.987 89.2C137.02 89.2 136.137 88.9667 135.337 88.5C134.537 88.0333 133.898 87.4056 133.42 86.6167C132.954 85.8278 132.72 84.9556 132.72 84C132.72 83.0333 132.954 82.1611 133.42 81.3833C133.898 80.5944 134.537 79.9667 135.337 79.5C136.137 79.0333 137.02 78.8 137.987 78.8C138.965 78.8 139.848 79.0333 140.637 79.5C141.437 79.9667 142.07 80.5944 142.537 81.3833C143.015 82.1611 143.254 83.0333 143.254 84C143.254 84.9556 143.015 85.8278 142.537 86.6167C142.07 87.4056 141.437 88.0333 140.637 88.5C139.848 88.9667 138.965 89.2 137.987 89.2ZM137.987 87.5C138.631 87.5 139.215 87.3444 139.737 87.0333C140.259 86.7111 140.676 86.2889 140.987 85.7667C141.298 85.2333 141.454 84.6444 141.454 84C141.454 83.3556 141.298 82.7722 140.987 82.25C140.676 81.7167 140.259 81.2944 139.737 80.9833C139.215 80.6611 138.631 80.5 137.987 80.5C137.343 80.5 136.759 80.6611 136.237 80.9833C135.715 81.2944 135.298 81.7167 134.987 82.25C134.676 82.7722 134.52 83.3556 134.52 84C134.52 84.6444 134.676 85.2333 134.987 85.7667C135.298 86.2889 135.715 86.7111 136.237 87.0333C136.759 87.3444 137.343 87.5 137.987 87.5ZM151.241 89V73.5L158.207 83.1L165.041 73.5V89H163.141V82.0667C163.141 81.6111 163.146 81.1167 163.157 80.5833C163.168 80.0389 163.207 79.4222 163.274 78.7333C162.93 79.3444 162.591 79.8833 162.257 80.35C161.935 80.8056 161.641 81.2278 161.374 81.6167L158.141 86.2L154.807 81.6167C154.53 81.2278 154.23 80.8056 153.907 80.35C153.596 79.8833 153.263 79.3444 152.907 78.7333C152.974 79.4222 153.013 80.0389 153.024 80.5833C153.035 81.1167 153.041 81.6111 153.041 82.0667V89H151.241ZM172.557 89.2C171.857 89.2 171.202 89.0278 170.591 88.6833C169.98 88.3278 169.485 87.8167 169.107 87.15C168.73 86.4833 168.541 85.6833 168.541 84.75V79H170.341V84.5C170.341 85.2889 170.574 85.9889 171.041 86.6C171.518 87.2 172.185 87.5 173.041 87.5C173.741 87.5 174.363 87.25 174.907 86.75C175.463 86.2389 175.741 85.5056 175.741 84.55V79H177.541V89H175.874V87.3833C175.507 87.9722 175.03 88.4222 174.441 88.7333C173.863 89.0444 173.235 89.2 172.557 89.2ZM180.741 89V79H182.407V80.6167C182.774 80.0278 183.246 79.5778 183.824 79.2667C184.413 78.9556 185.046 78.8 185.724 78.8C186.435 78.8 187.091 78.9778 187.691 79.3333C188.302 79.6778 188.796 80.1833 189.174 80.85C189.552 81.5056 189.741 82.3056 189.741 83.25V89H187.941V83.5C187.941 82.7111 187.702 82.0167 187.224 81.4167C186.757 80.8056 186.096 80.5 185.241 80.5C184.541 80.5 183.913 80.7556 183.357 81.2667C182.813 81.7667 182.541 82.4944 182.541 83.45V89H180.741ZM192.741 89V79H194.541V89H192.741ZM193.641 77.2C193.307 77.2 193.024 77.0833 192.791 76.85C192.557 76.6167 192.441 76.3333 192.441 76C192.441 75.6556 192.557 75.3722 192.791 75.15C193.024 74.9167 193.307 74.8 193.641 74.8C193.985 74.8 194.268 74.9167 194.491 75.15C194.724 75.3722 194.841 75.6556 194.841 76C194.841 76.3333 194.724 76.6167 194.491 76.85C194.268 77.0833 193.985 77.2 193.641 77.2ZM202.333 89.2C201.355 89.2 200.466 88.9667 199.666 88.5C198.866 88.0333 198.227 87.4056 197.749 86.6167C197.272 85.8278 197.033 84.9556 197.033 84C197.033 83.0444 197.272 82.1722 197.749 81.3833C198.227 80.5944 198.866 79.9667 199.666 79.5C200.466 79.0333 201.355 78.8 202.333 78.8C203.055 78.8 203.733 78.9278 204.366 79.1833C204.999 79.4389 205.555 79.7778 206.033 80.2L205.483 82.4667C205.205 81.9111 204.783 81.4444 204.216 81.0667C203.661 80.6889 203.027 80.5 202.316 80.5C201.672 80.5 201.083 80.6611 200.549 80.9833C200.027 81.2944 199.611 81.7167 199.299 82.25C198.988 82.7722 198.833 83.3556 198.833 84C198.833 84.6333 198.988 85.2167 199.299 85.75C199.611 86.2833 200.027 86.7111 200.549 87.0333C201.083 87.3444 201.672 87.5 202.316 87.5C203.027 87.5 203.661 87.3167 204.216 86.95C204.783 86.5833 205.205 86.1111 205.483 85.5333L206.033 87.8C205.555 88.2222 204.999 88.5611 204.366 88.8167C203.733 89.0722 203.055 89.2 202.333 89.2ZM208.233 89V79H210.033V89H208.233ZM208.366 77.5L209.866 74.5H211.966L209.883 77.5H208.366ZM213.225 94V79H214.892V80.3167C215.347 79.8611 215.875 79.5056 216.475 79.25C217.075 78.9944 217.719 78.8667 218.408 78.8667C219.331 78.8667 220.164 79.1 220.908 79.5667C221.664 80.0222 222.264 80.6389 222.708 81.4167C223.164 82.1944 223.392 83.0556 223.392 84C223.392 84.9444 223.164 85.8056 222.708 86.5833C222.264 87.3611 221.664 87.9833 220.908 88.45C220.164 88.9056 219.331 89.1333 218.408 89.1333C217.753 89.1333 217.136 89.0167 216.558 88.7833C215.981 88.55 215.469 88.2278 215.025 87.8167V94H213.225ZM218.175 87.5C218.808 87.5 219.381 87.3444 219.892 87.0333C220.414 86.7111 220.825 86.2889 221.125 85.7667C221.436 85.2333 221.592 84.6444 221.592 84C221.592 83.3556 221.436 82.7722 221.125 82.25C220.825 81.7167 220.414 81.2944 219.892 80.9833C219.381 80.6611 218.808 80.5 218.175 80.5C217.542 80.5 216.964 80.6611 216.442 80.9833C215.931 81.2944 215.519 81.7167 215.208 82.25C214.908 82.7722 214.758 83.3556 214.758 84C214.758 84.6444 214.908 85.2333 215.208 85.7667C215.519 86.2889 215.931 86.7111 216.442 87.0333C216.964 87.3444 217.542 87.5 218.175 87.5ZM225.881 89V79H227.681V89H225.881ZM226.781 77.2C226.448 77.2 226.165 77.0833 225.931 76.85C225.698 76.6167 225.581 76.3333 225.581 76C225.581 75.6556 225.698 75.3722 225.931 75.15C226.165 74.9167 226.448 74.8 226.781 74.8C227.126 74.8 227.409 74.9167 227.631 75.15C227.865 75.3722 227.981 75.6556 227.981 76C227.981 76.3333 227.865 76.6167 227.631 76.85C227.409 77.0833 227.126 77.2 226.781 77.2ZM235.44 89.2C234.473 89.2 233.59 88.9667 232.79 88.5C231.99 88.0333 231.351 87.4056 230.873 86.6167C230.407 85.8278 230.173 84.9556 230.173 84C230.173 83.0333 230.407 82.1611 230.873 81.3833C231.351 80.5944 231.99 79.9667 232.79 79.5C233.59 79.0333 234.473 78.8 235.44 78.8C236.418 78.8 237.301 79.0333 238.09 79.5C238.89 79.9667 239.523 80.5944 239.99 81.3833C240.468 82.1611 240.707 83.0333 240.707 84C240.707 84.9556 240.468 85.8278 239.99 86.6167C239.523 87.4056 238.89 88.0333 238.09 88.5C237.301 88.9667 236.418 89.2 235.44 89.2ZM235.44 87.5C236.085 87.5 236.668 87.3444 237.19 87.0333C237.712 86.7111 238.129 86.2889 238.44 85.7667C238.751 85.2333 238.907 84.6444 238.907 84C238.907 83.3556 238.751 82.7722 238.44 82.25C238.129 81.7167 237.712 81.2944 237.19 80.9833C236.668 80.6611 236.085 80.5 235.44 80.5C234.796 80.5 234.212 80.6611 233.69 80.9833C233.168 81.2944 232.751 81.7167 232.44 82.25C232.129 82.7722 231.973 83.3556 231.973 84C231.973 84.6444 232.129 85.2333 232.44 85.7667C232.751 86.2889 233.168 86.7111 233.69 87.0333C234.212 87.3444 234.796 87.5 235.44 87.5Z" fill="#BFBFBF"/>
<rect x="4" y="141" width="588" height="192" rx="36" fill="#B6EDD0"/>
<path d="M21.6 149V133.5L28.7333 142.367L35.7333 133.5V149H32.8333V144.7C32.8333 144.211 32.8389 143.661 32.85 143.05C32.8722 142.439 32.9278 141.739 33.0167 140.95C32.6722 141.528 32.3389 142.028 32.0167 142.45C31.7056 142.872 31.4167 143.261 31.15 143.617L28.6833 146.917L26.1333 143.617C25.8778 143.283 25.5722 142.883 25.2167 142.417C24.8722 141.939 24.5389 141.433 24.2167 140.9C24.3056 141.711 24.3556 142.422 24.3667 143.033C24.3889 143.644 24.4 144.2 24.4 144.7V149H21.6ZM42.9438 149.267C42.0215 149.267 41.1826 149.028 40.4271 148.55C39.6715 148.072 39.066 147.439 38.6104 146.65C38.166 145.85 37.9438 144.967 37.9438 144C37.9438 143.033 38.166 142.15 38.6104 141.35C39.066 140.55 39.6715 139.917 40.4271 139.45C41.1826 138.972 42.0215 138.733 42.9438 138.733C43.5882 138.733 44.1771 138.85 44.7104 139.083C45.2438 139.306 45.6993 139.617 46.0771 140.017V139H48.5771V149H46.0771V147.983C45.6993 148.383 45.2438 148.7 44.7104 148.933C44.1771 149.156 43.5882 149.267 42.9438 149.267ZM43.2938 146.717C43.7826 146.717 44.2271 146.594 44.6271 146.35C45.0271 146.106 45.3438 145.778 45.5771 145.367C45.8215 144.956 45.9438 144.5 45.9438 144C45.9438 143.5 45.8215 143.044 45.5771 142.633C45.3438 142.222 45.0271 141.894 44.6271 141.65C44.2271 141.406 43.7826 141.283 43.2938 141.283C42.8049 141.283 42.3604 141.406 41.9604 141.65C41.5604 141.894 41.2382 142.222 40.9938 142.633C40.7604 143.044 40.6438 143.5 40.6438 144C40.6438 144.5 40.7604 144.956 40.9938 145.367C41.2382 145.778 41.5604 146.106 41.9604 146.35C42.3604 146.594 42.8049 146.717 43.2938 146.717ZM55.6719 149.333C54.683 149.333 53.7774 149.094 52.9552 148.617C52.133 148.139 51.4774 147.494 50.9885 146.683C50.5108 145.872 50.2719 144.978 50.2719 144C50.2719 143.011 50.5108 142.117 50.9885 141.317C51.4774 140.506 52.133 139.861 52.9552 139.383C53.7774 138.906 54.683 138.667 55.6719 138.667C56.3608 138.667 57.0108 138.783 57.6219 139.017C58.2441 139.239 58.7941 139.572 59.2719 140.017L58.5219 142.967C58.2441 142.511 57.8719 142.117 57.4052 141.783C56.9497 141.439 56.4108 141.267 55.7885 141.267C55.2663 141.267 54.7997 141.389 54.3885 141.633C53.9774 141.878 53.6552 142.206 53.4219 142.617C53.1885 143.028 53.0719 143.489 53.0719 144C53.0719 144.5 53.1885 144.961 53.4219 145.383C53.6552 145.794 53.9774 146.122 54.3885 146.367C54.7997 146.611 55.2663 146.733 55.7885 146.733C56.4108 146.733 56.9497 146.567 57.4052 146.233C57.8719 145.889 58.2441 145.489 58.5219 145.033L59.2719 147.983C58.7941 148.428 58.2441 148.767 57.6219 149C57.0108 149.222 56.3608 149.333 55.6719 149.333ZM60.7797 149V139H63.3797V140.717C63.7241 140.139 64.1575 139.694 64.6797 139.383C65.213 139.061 65.8352 138.9 66.5464 138.9L67.1797 141.467C66.9686 141.4 66.7297 141.367 66.463 141.367C65.6297 141.367 64.9575 141.639 64.4464 142.183C63.9352 142.717 63.6797 143.483 63.6797 144.483V149H60.7797ZM73.0156 149.333C72.0267 149.333 71.1212 149.094 70.299 148.617C69.4767 148.139 68.8212 147.494 68.3323 146.683C67.8545 145.872 67.6156 144.978 67.6156 144C67.6156 143.011 67.8545 142.117 68.3323 141.317C68.8212 140.506 69.4767 139.861 70.299 139.383C71.1212 138.906 72.0267 138.667 73.0156 138.667C74.0156 138.667 74.9212 138.906 75.7323 139.383C76.5545 139.861 77.2045 140.506 77.6823 141.317C78.1712 142.117 78.4156 143.011 78.4156 144C78.4156 144.978 78.1712 145.872 77.6823 146.683C77.2045 147.494 76.5545 148.139 75.7323 148.617C74.9212 149.094 74.0156 149.333 73.0156 149.333ZM73.0156 146.733C73.5156 146.733 73.9656 146.611 74.3656 146.367C74.7767 146.122 75.099 145.794 75.3323 145.383C75.5767 144.961 75.699 144.5 75.699 144C75.699 143.489 75.5767 143.028 75.3323 142.617C75.099 142.206 74.7767 141.878 74.3656 141.633C73.9656 141.389 73.5156 141.267 73.0156 141.267C72.5156 141.267 72.0601 141.389 71.649 141.633C71.249 141.878 70.9267 142.206 70.6823 142.617C70.449 143.028 70.3323 143.489 70.3323 144C70.3323 144.5 70.449 144.961 70.6823 145.383C70.9267 145.794 71.249 146.122 71.649 146.367C72.0601 146.611 72.5156 146.733 73.0156 146.733ZM85.7078 149V134H88.8078V149H85.7078ZM91.6 149V139H94.2V140.1C94.5556 139.633 94.9944 139.278 95.5167 139.033C96.0389 138.789 96.6 138.667 97.2 138.667C97.9111 138.667 98.5722 138.839 99.1833 139.183C99.8056 139.517 100.306 140.011 100.683 140.667C101.072 141.311 101.267 142.094 101.267 143.017V149H98.3667V143.4C98.3667 142.844 98.2 142.35 97.8667 141.917C97.5333 141.483 97.0556 141.267 96.4333 141.267C95.9333 141.267 95.4833 141.439 95.0833 141.783C94.6944 142.117 94.5 142.644 94.5 143.367V149H91.6ZM107.789 149.267C106.855 149.267 106.011 149.028 105.255 148.55C104.5 148.072 103.894 147.439 103.439 146.65C102.994 145.85 102.772 144.967 102.772 144C102.772 143.033 102.994 142.15 103.439 141.35C103.894 140.55 104.5 139.917 105.255 139.45C106.011 138.972 106.855 138.733 107.789 138.733C108.322 138.733 108.816 138.811 109.272 138.967C109.727 139.122 110.139 139.344 110.505 139.633V133H113.405V149H110.905V148.017C110.527 148.406 110.072 148.711 109.539 148.933C109.005 149.156 108.422 149.267 107.789 149.267ZM108.122 146.717C108.611 146.717 109.055 146.594 109.455 146.35C109.855 146.106 110.172 145.778 110.405 145.367C110.65 144.956 110.772 144.5 110.772 144C110.772 143.5 110.65 143.044 110.405 142.633C110.172 142.222 109.855 141.894 109.455 141.65C109.055 141.406 108.611 141.283 108.122 141.283C107.633 141.283 107.189 141.406 106.789 141.65C106.389 141.894 106.066 142.222 105.822 142.633C105.589 143.044 105.472 143.5 105.472 144C105.472 144.5 105.589 144.956 105.822 145.367C106.066 145.778 106.389 146.106 106.789 146.35C107.189 146.594 107.633 146.717 108.122 146.717ZM115.633 149V139H118.533V149H115.633ZM117.083 137.55C116.65 137.55 116.283 137.4 115.983 137.1C115.683 136.8 115.533 136.433 115.533 136C115.533 135.556 115.683 135.189 115.983 134.9C116.283 134.6 116.65 134.45 117.083 134.45C117.528 134.45 117.894 134.6 118.183 134.9C118.483 135.189 118.633 135.556 118.633 136C118.633 136.433 118.483 136.8 118.183 137.1C117.894 137.4 117.528 137.55 117.083 137.55ZM125.656 149.333C124.667 149.333 123.762 149.094 122.94 148.617C122.117 148.139 121.462 147.494 120.973 146.683C120.495 145.872 120.256 144.978 120.256 144C120.256 143.011 120.495 142.117 120.973 141.317C121.462 140.506 122.117 139.861 122.94 139.383C123.762 138.906 124.667 138.667 125.656 138.667C126.345 138.667 126.995 138.783 127.606 139.017C128.228 139.239 128.778 139.572 129.256 140.017L128.506 142.967C128.228 142.511 127.856 142.117 127.39 141.783C126.934 141.439 126.395 141.267 125.773 141.267C125.251 141.267 124.784 141.389 124.373 141.633C123.962 141.878 123.64 142.206 123.406 142.617C123.173 143.028 123.056 143.489 123.056 144C123.056 144.5 123.173 144.961 123.406 145.383C123.64 145.794 123.962 146.122 124.373 146.367C124.784 146.611 125.251 146.733 125.773 146.733C126.395 146.733 126.934 146.567 127.39 146.233C127.856 145.889 128.228 145.489 128.506 145.033L129.256 147.983C128.778 148.428 128.228 148.767 127.606 149C126.995 149.222 126.345 149.333 125.656 149.333ZM135.264 149.267C134.342 149.267 133.503 149.028 132.747 148.55C131.992 148.072 131.386 147.439 130.931 146.65C130.486 145.85 130.264 144.967 130.264 144C130.264 143.033 130.486 142.15 130.931 141.35C131.386 140.55 131.992 139.917 132.747 139.45C133.503 138.972 134.342 138.733 135.264 138.733C135.909 138.733 136.497 138.85 137.031 139.083C137.564 139.306 138.02 139.617 138.397 140.017V139H140.897V149H138.397V147.983C138.02 148.383 137.564 148.7 137.031 148.933C136.497 149.156 135.909 149.267 135.264 149.267ZM135.614 146.717C136.103 146.717 136.547 146.594 136.947 146.35C137.347 146.106 137.664 145.778 137.897 145.367C138.142 144.956 138.264 144.5 138.264 144C138.264 143.5 138.142 143.044 137.897 142.633C137.664 142.222 137.347 141.894 136.947 141.65C136.547 141.406 136.103 141.283 135.614 141.283C135.125 141.283 134.681 141.406 134.281 141.65C133.881 141.894 133.559 142.222 133.314 142.633C133.081 143.044 132.964 143.5 132.964 144C132.964 144.5 133.081 144.956 133.314 145.367C133.559 145.778 133.881 146.106 134.281 146.35C134.681 146.594 135.125 146.717 135.614 146.717ZM147.609 149.267C146.676 149.267 145.831 149.028 145.076 148.55C144.32 148.072 143.714 147.439 143.259 146.65C142.814 145.85 142.592 144.967 142.592 144C142.592 143.033 142.814 142.15 143.259 141.35C143.714 140.55 144.32 139.917 145.076 139.45C145.831 138.972 146.676 138.733 147.609 138.733C148.142 138.733 148.637 138.811 149.092 138.967C149.548 139.122 149.959 139.344 150.326 139.633V133H153.226V149H150.726V148.017C150.348 148.406 149.892 148.711 149.359 148.933C148.826 149.156 148.242 149.267 147.609 149.267ZM147.942 146.717C148.431 146.717 148.876 146.594 149.276 146.35C149.676 146.106 149.992 145.778 150.226 145.367C150.47 144.956 150.592 144.5 150.592 144C150.592 143.5 150.47 143.044 150.226 142.633C149.992 142.222 149.676 141.894 149.276 141.65C148.876 141.406 148.431 141.283 147.942 141.283C147.453 141.283 147.009 141.406 146.609 141.65C146.209 141.894 145.887 142.222 145.642 142.633C145.409 143.044 145.292 143.5 145.292 144C145.292 144.5 145.409 144.956 145.642 145.367C145.887 145.778 146.209 146.106 146.609 146.35C147.009 146.594 147.453 146.717 147.942 146.717ZM160.32 149.333C159.331 149.333 158.426 149.094 157.604 148.617C156.781 148.139 156.126 147.494 155.637 146.683C155.159 145.872 154.92 144.978 154.92 144C154.92 143.011 155.159 142.117 155.637 141.317C156.126 140.506 156.781 139.861 157.604 139.383C158.426 138.906 159.331 138.667 160.32 138.667C161.32 138.667 162.226 138.906 163.037 139.383C163.859 139.861 164.509 140.506 164.987 141.317C165.476 142.117 165.72 143.011 165.72 144C165.72 144.978 165.476 145.872 164.987 146.683C164.509 147.494 163.859 148.139 163.037 148.617C162.226 149.094 161.32 149.333 160.32 149.333ZM160.32 146.733C160.82 146.733 161.27 146.611 161.67 146.367C162.081 146.122 162.404 145.794 162.637 145.383C162.881 144.961 163.004 144.5 163.004 144C163.004 143.489 162.881 143.028 162.637 142.617C162.404 142.206 162.081 141.878 161.67 141.633C161.27 141.389 160.82 141.267 160.32 141.267C159.82 141.267 159.365 141.389 158.954 141.633C158.554 141.878 158.231 142.206 157.987 142.617C157.754 143.028 157.637 143.489 157.637 144C157.637 144.5 157.754 144.961 157.987 145.383C158.231 145.794 158.554 146.122 158.954 146.367C159.365 146.611 159.82 146.733 160.32 146.733ZM167.42 149V139H170.02V140.717C170.365 140.139 170.798 139.694 171.32 139.383C171.854 139.061 172.476 138.9 173.187 138.9L173.82 141.467C173.609 141.4 173.37 141.367 173.104 141.367C172.27 141.367 171.598 141.639 171.087 142.183C170.576 142.717 170.32 143.483 170.32 144.483V149H167.42ZM179.94 149.333C178.817 149.333 177.828 149.1 176.973 148.633C176.117 148.167 175.451 147.528 174.973 146.717C174.495 145.894 174.256 144.956 174.256 143.9C174.256 142.889 174.49 141.994 174.956 141.217C175.423 140.428 176.051 139.806 176.84 139.35C177.64 138.894 178.523 138.667 179.49 138.667C180.478 138.667 181.362 138.894 182.14 139.35C182.917 139.794 183.528 140.406 183.973 141.183C184.428 141.961 184.656 142.844 184.656 143.833V144.85H178.556C178.278 144.85 178.012 144.833 177.756 144.8C177.501 144.767 177.245 144.728 176.99 144.683C177.123 145.35 177.451 145.894 177.973 146.317C178.506 146.728 179.184 146.933 180.006 146.933C180.64 146.933 181.206 146.806 181.706 146.55C182.217 146.294 182.634 145.978 182.956 145.6L183.59 148.2C183.09 148.578 182.523 148.861 181.89 149.05C181.267 149.239 180.617 149.333 179.94 149.333ZM176.923 142.933C177.478 142.811 178.023 142.75 178.556 142.75H180.323C180.634 142.75 180.928 142.761 181.206 142.783C181.484 142.806 181.745 142.844 181.99 142.9C181.823 142.3 181.517 141.828 181.073 141.483C180.64 141.139 180.101 140.967 179.456 140.967C178.845 140.967 178.312 141.144 177.856 141.5C177.412 141.844 177.101 142.322 176.923 142.933ZM189.547 149.333C188.87 149.333 188.181 149.222 187.481 149C186.792 148.778 186.253 148.478 185.864 148.1L186.581 145.367C186.903 145.811 187.347 146.2 187.914 146.533C188.492 146.867 189.086 147.033 189.697 147.033C190.109 147.033 190.403 146.956 190.581 146.8C190.77 146.644 190.864 146.456 190.864 146.233C190.864 145.978 190.77 145.794 190.581 145.683C190.392 145.561 190.197 145.461 189.997 145.383L188.597 144.85C188.286 144.728 187.931 144.561 187.531 144.35C187.131 144.139 186.781 143.839 186.481 143.45C186.192 143.061 186.047 142.55 186.047 141.917C186.047 141.339 186.192 140.806 186.481 140.317C186.77 139.828 187.186 139.433 187.731 139.133C188.286 138.822 188.953 138.667 189.731 138.667C190.453 138.667 191.125 138.789 191.747 139.033C192.381 139.278 192.842 139.55 193.131 139.85L192.464 142.483C192.086 141.994 191.636 141.622 191.114 141.367C190.603 141.1 190.114 140.967 189.647 140.967C189.292 140.967 189.031 141.039 188.864 141.183C188.697 141.328 188.614 141.494 188.614 141.683C188.614 141.828 188.67 141.972 188.781 142.117C188.903 142.25 189.103 142.372 189.381 142.483L190.681 142.967C191.059 143.1 191.459 143.278 191.881 143.5C192.314 143.722 192.681 144.033 192.981 144.433C193.281 144.822 193.431 145.361 193.431 146.05C193.431 147.017 193.07 147.806 192.347 148.417C191.636 149.028 190.703 149.333 189.547 149.333Z" fill="#1E1E1E"/>
<path fill-rule="evenodd" clip-rule="evenodd" d="M11 196C11 176.118 27.1178 160 47 160H102C121.882 160 138 176.118 138 196V203V234V239V270V277C138 296.882 121.882 313 102 313H47C27.1177 313 11 296.882 11 277V270V239V234V203V196Z" fill="#75BB96"/>
<path fill-rule="evenodd" clip-rule="evenodd" d="M47 160C27.1178 160 11 176.118 11 196V212H138V196C138 176.118 121.882 160 102 160H47Z" fill="#064335"/>
<path d="M58.9578 194V179H62.0578V194H58.9578ZM65.35 194V179H70.45C71.65 179 72.7389 179.194 73.7167 179.583C74.7056 179.972 75.5556 180.511 76.2667 181.2C76.9889 181.878 77.5444 182.672 77.9333 183.583C78.3222 184.494 78.5167 185.467 78.5167 186.5C78.5167 187.533 78.3222 188.506 77.9333 189.417C77.5444 190.328 76.9889 191.128 76.2667 191.817C75.5556 192.494 74.7056 193.028 73.7167 193.417C72.7389 193.806 71.65 194 70.45 194H65.35ZM68.25 191.3H70.1833C71.0278 191.3 71.7722 191.178 72.4167 190.933C73.0611 190.678 73.6 190.333 74.0333 189.9C74.4778 189.456 74.8111 188.944 75.0333 188.367C75.2667 187.789 75.3833 187.167 75.3833 186.5C75.3833 185.833 75.2667 185.211 75.0333 184.633C74.8111 184.044 74.4778 183.533 74.0333 183.1C73.6 182.656 73.0611 182.311 72.4167 182.067C71.7722 181.822 71.0278 181.7 70.1833 181.7H68.25V191.3ZM81.0063 194V179H83.9062V183.8H88.2396V179H91.1396V194H88.2396V186.5H83.9062V194H81.0063Z" fill="#EAEAEA"/>
<path fill-rule="evenodd" clip-rule="evenodd" d="M12.1342 286C16.1305 301.527 30.2254 313 47 313H102C118.775 313 132.869 301.527 136.866 286H12.1342Z" fill="#064335"/>
<path d="M27.825 301V293.5H30.1167C30.6611 293.5 31.125 293.608 31.5083 293.825C31.8972 294.042 32.1944 294.331 32.4 294.692C32.6056 295.047 32.7083 295.439 32.7083 295.867C32.7083 296.256 32.6222 296.608 32.45 296.925C32.2833 297.242 32.0444 297.503 31.7333 297.708L33.7167 301H32.075L30.4083 298.15H29.275V301H27.825ZM29.275 296.9H30.0833C30.3556 296.9 30.5778 296.85 30.75 296.75C30.9222 296.644 31.05 296.514 31.1333 296.358C31.2167 296.197 31.2583 296.033 31.2583 295.867C31.2583 295.572 31.15 295.331 30.9333 295.142C30.7167 294.947 30.4333 294.85 30.0833 294.85H29.275V296.9ZM36.1398 301.133C35.6787 301.133 35.2593 301.014 34.8815 300.775C34.5037 300.536 34.201 300.219 33.9732 299.825C33.751 299.425 33.6398 298.983 33.6398 298.5C33.6398 298.017 33.751 297.575 33.9732 297.175C34.201 296.775 34.5037 296.458 34.8815 296.225C35.2593 295.986 35.6787 295.867 36.1398 295.867C36.4621 295.867 36.7565 295.925 37.0232 296.042C37.2898 296.153 37.5176 296.308 37.7065 296.508V296H38.9565V301H37.7065V300.492C37.5176 300.692 37.2898 300.85 37.0232 300.967C36.7565 301.078 36.4621 301.133 36.1398 301.133ZM36.3148 299.858C36.5593 299.858 36.7815 299.797 36.9815 299.675C37.1815 299.553 37.3398 299.389 37.4565 299.183C37.5787 298.978 37.6398 298.75 37.6398 298.5C37.6398 298.25 37.5787 298.022 37.4565 297.817C37.3398 297.611 37.1815 297.447 36.9815 297.325C36.7815 297.203 36.5593 297.142 36.3148 297.142C36.0704 297.142 35.8482 297.203 35.6482 297.325C35.4482 297.447 35.2871 297.611 35.1648 297.817C35.0482 298.022 34.9898 298.25 34.9898 298.5C34.9898 298.75 35.0482 298.978 35.1648 299.183C35.2871 299.389 35.4482 299.553 35.6482 299.675C35.8482 299.797 36.0704 299.858 36.3148 299.858ZM40.0539 301V296H41.3539V296.55C41.5317 296.317 41.7511 296.139 42.0122 296.017C42.2734 295.894 42.5539 295.833 42.8539 295.833C43.2095 295.833 43.54 295.919 43.8456 296.092C44.1567 296.258 44.4067 296.506 44.5956 296.833C44.79 297.156 44.8872 297.547 44.8872 298.008V301H43.4372V298.2C43.4372 297.922 43.3539 297.675 43.1872 297.458C43.0206 297.242 42.7817 297.133 42.4706 297.133C42.2206 297.133 41.9956 297.219 41.7956 297.392C41.6011 297.558 41.5039 297.822 41.5039 298.183V301H40.0539ZM49.2148 301L47.2232 298.25L48.8648 296H50.4232L48.8065 298.125L50.9232 301H49.2148ZM45.8898 301V293H47.3398V301H45.8898ZM51.4846 301V296H52.9346V301H51.4846ZM52.2096 295.275C51.993 295.275 51.8096 295.2 51.6596 295.05C51.5096 294.9 51.4346 294.717 51.4346 294.5C51.4346 294.278 51.5096 294.094 51.6596 293.95C51.8096 293.8 51.993 293.725 52.2096 293.725C52.4319 293.725 52.6152 293.8 52.7596 293.95C52.9096 294.094 52.9846 294.278 52.9846 294.5C52.9846 294.717 52.9096 294.9 52.7596 295.05C52.6152 295.2 52.4319 295.275 52.2096 295.275ZM54.0461 301V296H55.3461V296.55C55.5239 296.317 55.7433 296.139 56.0044 296.017C56.2655 295.894 56.5461 295.833 56.8461 295.833C57.2016 295.833 57.5322 295.919 57.8378 296.092C58.1489 296.258 58.3989 296.506 58.5878 296.833C58.7822 297.156 58.8794 297.547 58.8794 298.008V301H57.4294V298.2C57.4294 297.922 57.3461 297.675 57.1794 297.458C57.0128 297.242 56.7739 297.133 56.4628 297.133C56.2128 297.133 55.9878 297.219 55.7878 297.392C55.5933 297.558 55.4961 297.822 55.4961 298.183V301H54.0461ZM62.0654 303.667C61.6765 303.667 61.3043 303.608 60.9487 303.492C60.5987 303.381 60.2959 303.228 60.0404 303.033L60.3904 301.6C60.5681 301.839 60.8015 302.033 61.0904 302.183C61.3793 302.339 61.7043 302.417 62.0654 302.417C62.5765 302.417 62.9737 302.269 63.257 301.975C63.5404 301.686 63.682 301.314 63.682 300.858V300.508C63.4931 300.703 63.2654 300.856 62.9987 300.967C62.7376 301.078 62.4487 301.133 62.132 301.133C61.6709 301.133 61.2515 301.014 60.8737 300.775C60.4959 300.536 60.1931 300.219 59.9654 299.825C59.7431 299.425 59.632 298.983 59.632 298.5C59.632 298.017 59.7431 297.575 59.9654 297.175C60.1931 296.775 60.4959 296.458 60.8737 296.225C61.2515 295.986 61.6709 295.867 62.132 295.867C62.4543 295.867 62.7487 295.925 63.0154 296.042C63.282 296.153 63.5098 296.308 63.6987 296.508V296H64.9487V301.067C64.9487 301.611 64.8154 302.078 64.5487 302.467C64.282 302.856 63.9293 303.153 63.4904 303.358C63.0515 303.564 62.5765 303.667 62.0654 303.667ZM62.307 299.858C62.5515 299.858 62.7737 299.797 62.9737 299.675C63.1737 299.553 63.332 299.389 63.4487 299.183C63.5709 298.978 63.632 298.75 63.632 298.5C63.632 298.25 63.5709 298.022 63.4487 297.817C63.332 297.611 63.1737 297.447 62.9737 297.325C62.7737 297.203 62.5515 297.142 62.307 297.142C62.0626 297.142 61.8404 297.203 61.6404 297.325C61.4404 297.447 61.2793 297.611 61.157 297.817C61.0404 298.022 60.982 298.25 60.982 298.5C60.982 298.75 61.0404 298.978 61.157 299.183C61.2793 299.389 61.4404 299.553 61.6404 299.675C61.8404 299.797 62.0626 299.858 62.307 299.858ZM68.7922 301V293.5H71.1422C71.6422 293.5 72.0394 293.597 72.3339 293.792C72.6339 293.981 72.8477 294.211 72.9755 294.483C73.1033 294.75 73.1672 295.006 73.1672 295.25C73.1672 295.467 73.1255 295.672 73.0422 295.867C72.9589 296.056 72.8422 296.222 72.6922 296.367C73.0366 296.583 73.3144 296.872 73.5255 297.233C73.7366 297.589 73.8422 297.986 73.8422 298.425C73.8422 298.853 73.7366 299.264 73.5255 299.658C73.3144 300.053 73.0005 300.375 72.5839 300.625C72.1672 300.875 71.6533 301 71.0422 301H68.7922ZM70.2422 299.65H70.8922C71.2255 299.65 71.4922 299.586 71.6922 299.458C71.8977 299.325 72.045 299.161 72.1339 298.967C72.2283 298.767 72.2755 298.569 72.2755 298.375C72.2755 298.186 72.2311 297.994 72.1422 297.8C72.0533 297.6 71.9061 297.433 71.7005 297.3C71.5005 297.167 71.2311 297.1 70.8922 297.1H70.2422V299.65ZM70.2422 296.05H70.8922C71.1533 296.05 71.3644 295.989 71.5255 295.867C71.6866 295.744 71.7672 295.567 71.7672 295.333C71.7672 295.089 71.6866 294.906 71.5255 294.783C71.37 294.661 71.17 294.6 70.9255 294.6H70.2422V296.05ZM75.0633 301V293.5H77.3549C77.8994 293.5 78.3633 293.608 78.7466 293.825C79.1355 294.042 79.4327 294.331 79.6383 294.692C79.8438 295.047 79.9466 295.439 79.9466 295.867C79.9466 296.256 79.8605 296.608 79.6883 296.925C79.5216 297.242 79.2827 297.503 78.9716 297.708L80.9549 301H79.3133L77.6466 298.15H76.5133V301H75.0633ZM76.5133 296.9H77.3216C77.5938 296.9 77.8161 296.85 77.9883 296.75C78.1605 296.644 78.2883 296.514 78.3716 296.358C78.4549 296.197 78.4966 296.033 78.4966 295.867C78.4966 295.572 78.3883 295.331 78.1716 295.142C77.9549 294.947 77.6716 294.85 77.3216 294.85H76.5133V296.9ZM82.9063 297.9C82.6507 297.9 82.4368 297.814 82.2646 297.642C82.0924 297.469 82.0063 297.256 82.0063 297C82.0063 296.744 82.0924 296.531 82.2646 296.358C82.4368 296.186 82.6507 296.1 82.9063 296.1C83.1674 296.1 83.3813 296.186 83.5479 296.358C83.7201 296.531 83.8063 296.744 83.8063 297C83.8063 297.256 83.7201 297.469 83.5479 297.642C83.3813 297.814 83.1674 297.9 82.9063 297.9ZM82.9063 300.9C82.6507 300.9 82.4368 300.814 82.2646 300.642C82.0924 300.469 82.0063 300.256 82.0063 300C82.0063 299.744 82.0924 299.531 82.2646 299.358C82.4368 299.186 82.6507 299.1 82.9063 299.1C83.1674 299.1 83.3813 299.186 83.5479 299.358C83.7201 299.531 83.8063 299.744 83.8063 300C83.8063 300.256 83.7201 300.469 83.5479 300.642C83.3813 300.814 83.1674 300.9 82.9063 300.9Z" fill="#D9D9D9"/>
<path fill-rule="evenodd" clip-rule="evenodd" d="M160 196C160 176.118 176.118 160 196 160H251C270.882 160 287 176.118 287 196V203V234V239V270V277C287 296.882 270.882 313 251 313H196C176.118 313 160 296.882 160 277V270V239V234V203V196Z" fill="#75BB96"/>
<path fill-rule="evenodd" clip-rule="evenodd" d="M196 160C176.118 160 160 176.118 160 196V212H287V196C287 176.118 270.882 160 251 160H196Z" fill="#064335"/>
<path d="M196.655 194V179H201.188C202.232 179 203.116 179.156 203.838 179.467C204.571 179.778 205.16 180.189 205.605 180.7C206.049 181.2 206.371 181.75 206.571 182.35C206.782 182.939 206.888 183.522 206.888 184.1C206.888 184.667 206.788 185.25 206.588 185.85C206.388 186.439 206.06 186.989 205.605 187.5C205.16 188 204.577 188.406 203.855 188.717C203.132 189.028 202.244 189.183 201.188 189.183H199.555V194H196.655ZM199.555 186.583H201.021C201.732 186.583 202.294 186.461 202.705 186.217C203.127 185.961 203.427 185.644 203.605 185.267C203.794 184.889 203.888 184.5 203.888 184.1C203.888 183.711 203.799 183.328 203.621 182.95C203.444 182.561 203.144 182.239 202.721 181.983C202.31 181.728 201.744 181.6 201.021 181.6H199.555V186.583ZM209.083 194V179H212.183V194H209.083ZM215.475 194V179H220.175C221.175 179 221.969 179.194 222.558 179.583C223.158 179.961 223.586 180.422 223.842 180.967C224.097 181.5 224.225 182.011 224.225 182.5C224.225 182.933 224.142 183.344 223.975 183.733C223.808 184.111 223.575 184.444 223.275 184.733C223.964 185.167 224.519 185.744 224.942 186.467C225.364 187.178 225.575 187.972 225.575 188.85C225.575 189.706 225.364 190.528 224.942 191.317C224.519 192.106 223.892 192.75 223.058 193.25C222.225 193.75 221.197 194 219.975 194H215.475ZM218.375 191.3H219.675C220.342 191.3 220.875 191.172 221.275 190.917C221.686 190.65 221.981 190.322 222.158 189.933C222.347 189.533 222.442 189.139 222.442 188.75C222.442 188.372 222.353 187.989 222.175 187.6C221.997 187.2 221.703 186.867 221.292 186.6C220.892 186.333 220.353 186.2 219.675 186.2H218.375V191.3ZM218.375 184.1H219.675C220.197 184.1 220.619 183.978 220.942 183.733C221.264 183.489 221.425 183.133 221.425 182.667C221.425 182.178 221.264 181.811 220.942 181.567C220.631 181.322 220.231 181.2 219.742 181.2H218.375V184.1ZM232.159 194V186.25L235.726 190.683L239.226 186.25V194H237.776V191.85C237.776 191.606 237.779 191.331 237.784 191.025C237.795 190.719 237.823 190.369 237.868 189.975C237.695 190.264 237.529 190.514 237.368 190.725C237.212 190.936 237.068 191.131 236.934 191.308L235.701 192.958L234.426 191.308C234.298 191.142 234.145 190.942 233.968 190.708C233.795 190.469 233.629 190.217 233.468 189.95C233.512 190.356 233.537 190.711 233.543 191.017C233.554 191.322 233.559 191.6 233.559 191.85V194H232.159ZM240.856 194V186.5H243.148C243.692 186.5 244.156 186.608 244.54 186.825C244.928 187.042 245.226 187.331 245.431 187.692C245.637 188.047 245.74 188.439 245.74 188.867C245.74 189.256 245.653 189.608 245.481 189.925C245.315 190.242 245.076 190.503 244.765 190.708L246.748 194H245.106L243.44 191.15H242.306V194H240.856ZM242.306 189.9H243.115C243.387 189.9 243.609 189.85 243.781 189.75C243.953 189.644 244.081 189.514 244.165 189.358C244.248 189.197 244.29 189.033 244.29 188.867C244.29 188.572 244.181 188.331 243.965 188.142C243.748 187.947 243.465 187.85 243.115 187.85H242.306V189.9ZM249.499 195V194.15C249.105 194.111 248.735 194.014 248.391 193.858C248.052 193.697 247.774 193.511 247.558 193.3L247.966 191.633C248.16 191.972 248.435 192.256 248.791 192.483C249.146 192.706 249.51 192.817 249.883 192.817C250.188 192.817 250.427 192.733 250.599 192.567C250.777 192.4 250.866 192.197 250.866 191.958C250.866 191.764 250.819 191.603 250.724 191.475C250.635 191.347 250.527 191.242 250.399 191.158C250.277 191.075 250.169 191.011 250.074 190.967L249.191 190.525C248.935 190.397 248.691 190.247 248.458 190.075C248.224 189.897 248.033 189.678 247.883 189.417C247.738 189.156 247.666 188.833 247.666 188.45C247.666 187.9 247.83 187.439 248.158 187.067C248.485 186.694 248.933 186.464 249.499 186.375V185.75H250.399V186.358C250.749 186.397 251.063 186.481 251.341 186.608C251.619 186.731 251.849 186.861 252.033 187L251.649 188.625C251.427 188.336 251.16 188.106 250.849 187.933C250.544 187.756 250.238 187.667 249.933 187.667C249.66 187.667 249.449 187.736 249.299 187.875C249.155 188.014 249.083 188.186 249.083 188.392C249.083 188.519 249.11 188.633 249.166 188.733C249.227 188.833 249.313 188.922 249.424 189C249.535 189.078 249.666 189.156 249.816 189.233L250.708 189.675C250.858 189.747 251.021 189.842 251.199 189.958C251.377 190.069 251.549 190.211 251.716 190.383C251.883 190.556 252.019 190.764 252.124 191.008C252.23 191.247 252.283 191.533 252.283 191.867C252.283 192.428 252.116 192.917 251.783 193.333C251.449 193.744 250.988 194.006 250.399 194.117V195H249.499Z" fill="#EAEAEA"/>
<path fill-rule="evenodd" clip-rule="evenodd" d="M161.134 286C165.131 301.527 179.225 313 196 313H251C267.775 313 281.869 301.527 285.866 286H161.134Z" fill="#064335"/>
<path d="M176.825 301V293.5H179.117C179.661 293.5 180.125 293.608 180.508 293.825C180.897 294.042 181.194 294.331 181.4 294.692C181.606 295.047 181.708 295.439 181.708 295.867C181.708 296.256 181.622 296.608 181.45 296.925C181.283 297.242 181.044 297.503 180.733 297.708L182.717 301H181.075L179.408 298.15H178.275V301H176.825ZM178.275 296.9H179.083C179.356 296.9 179.578 296.85 179.75 296.75C179.922 296.644 180.05 296.514 180.133 296.358C180.217 296.197 180.258 296.033 180.258 295.867C180.258 295.572 180.15 295.331 179.933 295.142C179.717 294.947 179.433 294.85 179.083 294.85H178.275V296.9ZM185.14 301.133C184.679 301.133 184.259 301.014 183.882 300.775C183.504 300.536 183.201 300.219 182.973 299.825C182.751 299.425 182.64 298.983 182.64 298.5C182.64 298.017 182.751 297.575 182.973 297.175C183.201 296.775 183.504 296.458 183.882 296.225C184.259 295.986 184.679 295.867 185.14 295.867C185.462 295.867 185.757 295.925 186.023 296.042C186.29 296.153 186.518 296.308 186.707 296.508V296H187.957V301H186.707V300.492C186.518 300.692 186.29 300.85 186.023 300.967C185.757 301.078 185.462 301.133 185.14 301.133ZM185.315 299.858C185.559 299.858 185.782 299.797 185.982 299.675C186.182 299.553 186.34 299.389 186.457 299.183C186.579 298.978 186.64 298.75 186.64 298.5C186.64 298.25 186.579 298.022 186.457 297.817C186.34 297.611 186.182 297.447 185.982 297.325C185.782 297.203 185.559 297.142 185.315 297.142C185.07 297.142 184.848 297.203 184.648 297.325C184.448 297.447 184.287 297.611 184.165 297.817C184.048 298.022 183.99 298.25 183.99 298.5C183.99 298.75 184.048 298.978 184.165 299.183C184.287 299.389 184.448 299.553 184.648 299.675C184.848 299.797 185.07 299.858 185.315 299.858ZM189.054 301V296H190.354V296.55C190.532 296.317 190.751 296.139 191.012 296.017C191.273 295.894 191.554 295.833 191.854 295.833C192.209 295.833 192.54 295.919 192.846 296.092C193.157 296.258 193.407 296.506 193.596 296.833C193.79 297.156 193.887 297.547 193.887 298.008V301H192.437V298.2C192.437 297.922 192.354 297.675 192.187 297.458C192.021 297.242 191.782 297.133 191.471 297.133C191.221 297.133 190.996 297.219 190.796 297.392C190.601 297.558 190.504 297.822 190.504 298.183V301H189.054ZM198.215 301L196.223 298.25L197.865 296H199.423L197.807 298.125L199.923 301H198.215ZM194.89 301V293H196.34V301H194.89ZM200.485 301V296H201.935V301H200.485ZM201.21 295.275C200.993 295.275 200.81 295.2 200.66 295.05C200.51 294.9 200.435 294.717 200.435 294.5C200.435 294.278 200.51 294.094 200.66 293.95C200.81 293.8 200.993 293.725 201.21 293.725C201.432 293.725 201.615 293.8 201.76 293.95C201.91 294.094 201.985 294.278 201.985 294.5C201.985 294.717 201.91 294.9 201.76 295.05C201.615 295.2 201.432 295.275 201.21 295.275ZM203.046 301V296H204.346V296.55C204.524 296.317 204.743 296.139 205.004 296.017C205.266 295.894 205.546 295.833 205.846 295.833C206.202 295.833 206.532 295.919 206.838 296.092C207.149 296.258 207.399 296.506 207.588 296.833C207.782 297.156 207.879 297.547 207.879 298.008V301H206.429V298.2C206.429 297.922 206.346 297.675 206.179 297.458C206.013 297.242 205.774 297.133 205.463 297.133C205.213 297.133 204.988 297.219 204.788 297.392C204.593 297.558 204.496 297.822 204.496 298.183V301H203.046ZM211.065 303.667C210.676 303.667 210.304 303.608 209.949 303.492C209.599 303.381 209.296 303.228 209.04 303.033L209.39 301.6C209.568 301.839 209.801 302.033 210.09 302.183C210.379 302.339 210.704 302.417 211.065 302.417C211.576 302.417 211.974 302.269 212.257 301.975C212.54 301.686 212.682 301.314 212.682 300.858V300.508C212.493 300.703 212.265 300.856 211.999 300.967C211.738 301.078 211.449 301.133 211.132 301.133C210.671 301.133 210.251 301.014 209.874 300.775C209.496 300.536 209.193 300.219 208.965 299.825C208.743 299.425 208.632 298.983 208.632 298.5C208.632 298.017 208.743 297.575 208.965 297.175C209.193 296.775 209.496 296.458 209.874 296.225C210.251 295.986 210.671 295.867 211.132 295.867C211.454 295.867 211.749 295.925 212.015 296.042C212.282 296.153 212.51 296.308 212.699 296.508V296H213.949V301.067C213.949 301.611 213.815 302.078 213.549 302.467C213.282 302.856 212.929 303.153 212.49 303.358C212.051 303.564 211.576 303.667 211.065 303.667ZM211.307 299.858C211.551 299.858 211.774 299.797 211.974 299.675C212.174 299.553 212.332 299.389 212.449 299.183C212.571 298.978 212.632 298.75 212.632 298.5C212.632 298.25 212.571 298.022 212.449 297.817C212.332 297.611 212.174 297.447 211.974 297.325C211.774 297.203 211.551 297.142 211.307 297.142C211.063 297.142 210.84 297.203 210.64 297.325C210.44 297.447 210.279 297.611 210.157 297.817C210.04 298.022 209.982 298.25 209.982 298.5C209.982 298.75 210.04 298.978 210.157 299.183C210.279 299.389 210.44 299.553 210.64 299.675C210.84 299.797 211.063 299.858 211.307 299.858ZM217.792 301V293.5H220.142C220.642 293.5 221.039 293.597 221.334 293.792C221.634 293.981 221.848 294.211 221.976 294.483C222.103 294.75 222.167 295.006 222.167 295.25C222.167 295.467 222.126 295.672 222.042 295.867C221.959 296.056 221.842 296.222 221.692 296.367C222.037 296.583 222.314 296.872 222.526 297.233C222.737 297.589 222.842 297.986 222.842 298.425C222.842 298.853 222.737 299.264 222.526 299.658C222.314 300.053 222.001 300.375 221.584 300.625C221.167 300.875 220.653 301 220.042 301H217.792ZM219.242 299.65H219.892C220.226 299.65 220.492 299.586 220.692 299.458C220.898 299.325 221.045 299.161 221.134 298.967C221.228 298.767 221.276 298.569 221.276 298.375C221.276 298.186 221.231 297.994 221.142 297.8C221.053 297.6 220.906 297.433 220.701 297.3C220.501 297.167 220.231 297.1 219.892 297.1H219.242V299.65ZM219.242 296.05H219.892C220.153 296.05 220.364 295.989 220.526 295.867C220.687 295.744 220.767 295.567 220.767 295.333C220.767 295.089 220.687 294.906 220.526 294.783C220.37 294.661 220.17 294.6 219.926 294.6H219.242V296.05ZM224.063 301V293.5H226.355C226.899 293.5 227.363 293.608 227.747 293.825C228.136 294.042 228.433 294.331 228.638 294.692C228.844 295.047 228.947 295.439 228.947 295.867C228.947 296.256 228.861 296.608 228.688 296.925C228.522 297.242 228.283 297.503 227.972 297.708L229.955 301H228.313L226.647 298.15H225.513V301H224.063ZM225.513 296.9H226.322C226.594 296.9 226.816 296.85 226.988 296.75C227.161 296.644 227.288 296.514 227.372 296.358C227.455 296.197 227.497 296.033 227.497 295.867C227.497 295.572 227.388 295.331 227.172 295.142C226.955 294.947 226.672 294.85 226.322 294.85H225.513V296.9ZM231.906 297.9C231.651 297.9 231.437 297.814 231.265 297.642C231.092 297.469 231.006 297.256 231.006 297C231.006 296.744 231.092 296.531 231.265 296.358C231.437 296.186 231.651 296.1 231.906 296.1C232.167 296.1 232.381 296.186 232.548 296.358C232.72 296.531 232.806 296.744 232.806 297C232.806 297.256 232.72 297.469 232.548 297.642C232.381 297.814 232.167 297.9 231.906 297.9ZM231.906 300.9C231.651 300.9 231.437 300.814 231.265 300.642C231.092 300.469 231.006 300.256 231.006 300C231.006 299.744 231.092 299.531 231.265 299.358C231.437 299.186 231.651 299.1 231.906 299.1C232.167 299.1 232.381 299.186 232.548 299.358C232.72 299.531 232.806 299.744 232.806 300C232.806 300.256 232.72 300.469 232.548 300.642C232.381 300.814 232.167 300.9 231.906 300.9Z" fill="#EAEAEA"/>
<path fill-rule="evenodd" clip-rule="evenodd" d="M309 196C309 176.118 325.118 160 345 160H400C419.882 160 436 176.118 436 196V203V234V239V270V277C436 296.882 419.882 313 400 313H345C325.118 313 309 296.882 309 277V270V239V234V203V196Z" fill="#75BB96"/>
<path fill-rule="evenodd" clip-rule="evenodd" d="M345 160C325.118 160 309 176.118 309 196V212H436V196C436 176.118 419.882 160 400 160H345Z" fill="#064335"/>
<path d="M324.854 186V171H329.387C330.432 171 331.315 171.156 332.037 171.467C332.771 171.778 333.359 172.189 333.804 172.7C334.248 173.2 334.571 173.75 334.771 174.35C334.982 174.939 335.087 175.522 335.087 176.1C335.087 176.667 334.987 177.25 334.787 177.85C334.587 178.439 334.259 178.989 333.804 179.5C333.359 180 332.776 180.406 332.054 180.717C331.332 181.028 330.443 181.183 329.387 181.183H327.754V186H324.854ZM327.754 178.583H329.221C329.932 178.583 330.493 178.461 330.904 178.217C331.326 177.961 331.626 177.644 331.804 177.267C331.993 176.889 332.087 176.5 332.087 176.1C332.087 175.711 331.998 175.328 331.821 174.95C331.643 174.561 331.343 174.239 330.921 173.983C330.509 173.728 329.943 173.6 329.221 173.6H327.754V178.583ZM340.926 186.333C339.937 186.333 339.031 186.094 338.209 185.617C337.387 185.139 336.731 184.494 336.242 183.683C335.765 182.872 335.526 181.978 335.526 181C335.526 180.011 335.765 179.117 336.242 178.317C336.731 177.506 337.387 176.861 338.209 176.383C339.031 175.906 339.937 175.667 340.926 175.667C341.926 175.667 342.831 175.906 343.642 176.383C344.465 176.861 345.115 177.506 345.592 178.317C346.081 179.117 346.326 180.011 346.326 181C346.326 181.978 346.081 182.872 345.592 183.683C345.115 184.494 344.465 185.139 343.642 185.617C342.831 186.094 341.926 186.333 340.926 186.333ZM340.926 183.733C341.426 183.733 341.876 183.611 342.276 183.367C342.687 183.122 343.009 182.794 343.242 182.383C343.487 181.961 343.609 181.5 343.609 181C343.609 180.489 343.487 180.028 343.242 179.617C343.009 179.206 342.687 178.878 342.276 178.633C341.876 178.389 341.426 178.267 340.926 178.267C340.426 178.267 339.97 178.389 339.559 178.633C339.159 178.878 338.837 179.206 338.592 179.617C338.359 180.028 338.242 180.489 338.242 181C338.242 181.5 338.359 181.961 338.592 182.383C338.837 182.794 339.159 183.122 339.559 183.367C339.97 183.611 340.426 183.733 340.926 183.733ZM348.026 191V176H350.526V176.983C350.915 176.594 351.37 176.289 351.892 176.067C352.426 175.844 353.009 175.733 353.642 175.733C354.576 175.733 355.42 175.972 356.176 176.45C356.931 176.917 357.531 177.55 357.976 178.35C358.431 179.15 358.659 180.033 358.659 181C358.659 181.967 358.431 182.85 357.976 183.65C357.531 184.439 356.931 185.072 356.176 185.55C355.42 186.028 354.576 186.267 353.642 186.267C353.109 186.267 352.615 186.183 352.159 186.017C351.704 185.861 351.292 185.644 350.926 185.367V191H348.026ZM353.309 183.717C353.798 183.717 354.242 183.594 354.642 183.35C355.042 183.106 355.359 182.778 355.592 182.367C355.837 181.956 355.959 181.5 355.959 181C355.959 180.5 355.837 180.044 355.592 179.633C355.359 179.222 355.042 178.894 354.642 178.65C354.242 178.406 353.798 178.283 353.309 178.283C352.82 178.283 352.376 178.406 351.976 178.65C351.576 178.894 351.254 179.222 351.009 179.633C350.776 180.044 350.659 180.5 350.659 181C350.659 181.5 350.776 181.956 351.009 182.367C351.254 182.778 351.576 183.106 351.976 183.35C352.376 183.594 352.82 183.717 353.309 183.717ZM364.221 186.333C363.521 186.333 362.859 186.167 362.237 185.833C361.615 185.489 361.109 184.994 360.721 184.35C360.343 183.694 360.154 182.906 360.154 181.983V176H363.054V181.6C363.054 182.156 363.221 182.65 363.554 183.083C363.898 183.517 364.376 183.733 364.987 183.733C365.487 183.733 365.932 183.556 366.321 183.2C366.721 182.833 366.921 182.311 366.921 181.633V176H369.821V186H367.187V184.95C366.832 185.394 366.393 185.739 365.871 185.983C365.359 186.217 364.809 186.333 364.221 186.333ZM372.059 186V170H374.959V186H372.059ZM381.682 186.267C380.76 186.267 379.921 186.028 379.165 185.55C378.41 185.072 377.804 184.439 377.349 183.65C376.904 182.85 376.682 181.967 376.682 181C376.682 180.033 376.904 179.15 377.349 178.35C377.804 177.55 378.41 176.917 379.165 176.45C379.921 175.972 380.76 175.733 381.682 175.733C382.326 175.733 382.915 175.85 383.449 176.083C383.982 176.306 384.438 176.617 384.815 177.017V176H387.315V186H384.815V184.983C384.438 185.383 383.982 185.7 383.449 185.933C382.915 186.156 382.326 186.267 381.682 186.267ZM382.032 183.717C382.521 183.717 382.965 183.594 383.365 183.35C383.765 183.106 384.082 182.778 384.315 182.367C384.56 181.956 384.682 181.5 384.682 181C384.682 180.5 384.56 180.044 384.315 179.633C384.082 179.222 383.765 178.894 383.365 178.65C382.965 178.406 382.521 178.283 382.032 178.283C381.543 178.283 381.099 178.406 380.699 178.65C380.299 178.894 379.976 179.222 379.732 179.633C379.499 180.044 379.382 180.5 379.382 181C379.382 181.5 379.499 181.956 379.732 182.367C379.976 182.778 380.299 183.106 380.699 183.35C381.099 183.594 381.543 183.717 382.032 183.717ZM390.027 189.2L393.143 186.183C392.355 185.994 391.649 185.656 391.027 185.167C390.405 184.667 389.91 184.056 389.543 183.333C389.188 182.611 389.01 181.833 389.01 181C389.01 180.011 389.249 179.117 389.727 178.317C390.216 177.506 390.871 176.861 391.693 176.383C392.516 175.906 393.421 175.667 394.41 175.667C395.099 175.667 395.749 175.783 396.36 176.017C396.982 176.239 397.532 176.572 398.01 177.017L397.26 179.967C396.982 179.511 396.61 179.117 396.143 178.783C395.688 178.439 395.149 178.267 394.527 178.267C394.005 178.267 393.538 178.389 393.127 178.633C392.716 178.878 392.393 179.206 392.16 179.617C391.927 180.028 391.81 180.489 391.81 181C391.81 181.5 391.927 181.961 392.16 182.383C392.393 182.794 392.716 183.122 393.127 183.367C393.538 183.611 394.005 183.733 394.527 183.733C395.149 183.733 395.688 183.567 396.143 183.233C396.61 182.889 396.982 182.489 397.26 182.033L398.01 184.983C397.688 185.283 397.332 185.533 396.943 185.733C396.555 185.933 396.143 186.083 395.71 186.183L393.61 189.2H390.027ZM404.018 186.267C403.096 186.267 402.257 186.028 401.501 185.55C400.746 185.072 400.14 184.439 399.685 183.65C399.24 182.85 399.018 181.967 399.018 181C399.018 180.033 399.24 179.15 399.685 178.35C400.14 177.55 400.746 176.917 401.501 176.45C402.257 175.972 403.096 175.733 404.018 175.733C404.662 175.733 405.251 175.85 405.785 176.083C406.318 176.306 406.774 176.617 407.151 177.017V176H409.651V186H407.151V184.983C406.774 185.383 406.318 185.7 405.785 185.933C405.251 186.156 404.662 186.267 404.018 186.267ZM404.368 183.717C404.857 183.717 405.301 183.594 405.701 183.35C406.101 183.106 406.418 182.778 406.651 182.367C406.896 181.956 407.018 181.5 407.018 181C407.018 180.5 406.896 180.044 406.651 179.633C406.418 179.222 406.101 178.894 405.701 178.65C405.301 178.406 404.857 178.283 404.368 178.283C403.879 178.283 403.435 178.406 403.035 178.65C402.635 178.894 402.312 179.222 402.068 179.633C401.835 180.044 401.718 180.5 401.718 181C401.718 181.5 401.835 181.956 402.068 182.367C402.312 182.778 402.635 183.106 403.035 183.35C403.435 183.594 403.879 183.717 404.368 183.717ZM401.435 174.617L400.735 172.6C400.957 172.156 401.262 171.817 401.651 171.583C402.04 171.339 402.462 171.217 402.918 171.217C403.318 171.217 403.679 171.289 404.001 171.433C404.335 171.567 404.657 171.706 404.968 171.85C405.279 171.983 405.596 172.05 405.918 172.05C406.274 172.05 406.574 171.95 406.818 171.75C407.062 171.539 407.257 171.25 407.401 170.883L408.101 172.9C407.879 173.344 407.574 173.689 407.185 173.933C406.796 174.167 406.374 174.283 405.918 174.283C405.529 174.283 405.168 174.217 404.835 174.083C404.501 173.939 404.179 173.8 403.868 173.667C403.557 173.522 403.24 173.45 402.918 173.45C402.574 173.45 402.279 173.556 402.035 173.767C401.79 173.967 401.59 174.25 401.435 174.617ZM416.746 186.333C415.757 186.333 414.852 186.094 414.029 185.617C413.207 185.139 412.552 184.494 412.063 183.683C411.585 182.872 411.346 181.978 411.346 181C411.346 180.011 411.585 179.117 412.063 178.317C412.552 177.506 413.207 176.861 414.029 176.383C414.852 175.906 415.757 175.667 416.746 175.667C417.746 175.667 418.652 175.906 419.463 176.383C420.285 176.861 420.935 177.506 421.413 178.317C421.902 179.117 422.146 180.011 422.146 181C422.146 181.978 421.902 182.872 421.413 183.683C420.935 184.494 420.285 185.139 419.463 185.617C418.652 186.094 417.746 186.333 416.746 186.333ZM416.746 183.733C417.246 183.733 417.696 183.611 418.096 183.367C418.507 183.122 418.829 182.794 419.063 182.383C419.307 181.961 419.429 181.5 419.429 181C419.429 180.489 419.307 180.028 419.063 179.617C418.829 179.206 418.507 178.878 418.096 178.633C417.696 178.389 417.246 178.267 416.746 178.267C416.246 178.267 415.791 178.389 415.379 178.633C414.979 178.878 414.657 179.206 414.413 179.617C414.179 180.028 414.063 180.489 414.063 181C414.063 181.5 414.179 181.961 414.413 182.383C414.657 182.794 414.979 183.122 415.379 183.367C415.791 183.611 416.246 183.733 416.746 183.733ZM354.478 198V193H355.778V193.55C355.956 193.317 356.175 193.139 356.436 193.017C356.703 192.894 356.981 192.833 357.269 192.833C357.564 192.833 357.842 192.894 358.103 193.017C358.364 193.139 358.583 193.317 358.761 193.55C358.956 193.317 359.197 193.139 359.486 193.017C359.775 192.894 360.089 192.833 360.428 192.833C360.783 192.833 361.117 192.917 361.428 193.083C361.739 193.244 361.992 193.483 362.186 193.8C362.381 194.111 362.478 194.492 362.478 194.942V198H361.028V195.15C361.028 194.883 360.95 194.647 360.794 194.442C360.639 194.236 360.414 194.133 360.119 194.133C359.964 194.133 359.814 194.172 359.669 194.25C359.531 194.322 359.417 194.433 359.328 194.583C359.244 194.728 359.203 194.911 359.203 195.133V198H357.753V195.15C357.753 194.972 357.717 194.806 357.644 194.65C357.578 194.494 357.475 194.369 357.336 194.275C357.203 194.181 357.039 194.133 356.844 194.133C356.689 194.133 356.539 194.172 356.394 194.25C356.256 194.322 356.142 194.433 356.053 194.583C355.969 194.728 355.928 194.911 355.928 195.133V198H354.478ZM363.494 198V193H364.944V198H363.494ZM364.219 192.275C364.003 192.275 363.819 192.2 363.669 192.05C363.519 191.9 363.444 191.717 363.444 191.5C363.444 191.278 363.519 191.094 363.669 190.95C363.819 190.8 364.003 190.725 364.219 190.725C364.442 190.725 364.625 190.8 364.769 190.95C364.919 191.094 364.994 191.278 364.994 191.5C364.994 191.717 364.919 191.9 364.769 192.05C364.625 192.2 364.442 192.275 364.219 192.275ZM366.073 198V190H367.523V198H366.073ZM371.38 198V190.5H372.83V192.9H374.997V190.5H376.447V198H374.997V194.25H372.83V198H371.38ZM380.048 198.133C379.587 198.133 379.167 198.014 378.79 197.775C378.412 197.536 378.109 197.219 377.881 196.825C377.659 196.425 377.548 195.983 377.548 195.5C377.548 195.017 377.659 194.575 377.881 194.175C378.109 193.775 378.412 193.458 378.79 193.225C379.167 192.986 379.587 192.867 380.048 192.867C380.37 192.867 380.665 192.925 380.931 193.042C381.198 193.153 381.426 193.308 381.615 193.508V193H382.865V198H381.615V197.492C381.426 197.692 381.198 197.85 380.931 197.967C380.665 198.078 380.37 198.133 380.048 198.133ZM380.223 196.858C380.467 196.858 380.69 196.797 380.89 196.675C381.09 196.553 381.248 196.389 381.365 196.183C381.487 195.978 381.548 195.75 381.548 195.5C381.548 195.25 381.487 195.022 381.365 194.817C381.248 194.611 381.09 194.447 380.89 194.325C380.69 194.203 380.467 194.142 380.223 194.142C379.979 194.142 379.756 194.203 379.556 194.325C379.356 194.447 379.195 194.611 379.073 194.817C378.956 195.022 378.898 195.25 378.898 195.5C378.898 195.75 378.956 195.978 379.073 196.183C379.195 196.389 379.356 196.553 379.556 196.675C379.756 196.797 379.979 196.858 380.223 196.858ZM386.77 198.133C386.454 198.133 386.162 198.078 385.895 197.967C385.634 197.856 385.407 197.703 385.212 197.508V198H383.962V190H385.412V193.317C385.595 193.172 385.801 193.061 386.029 192.983C386.257 192.906 386.504 192.867 386.77 192.867C387.237 192.867 387.659 192.986 388.037 193.225C388.415 193.458 388.715 193.775 388.937 194.175C389.165 194.575 389.279 195.017 389.279 195.5C389.279 195.983 389.165 196.425 388.937 196.825C388.715 197.219 388.415 197.536 388.037 197.775C387.659 198.014 387.237 198.133 386.77 198.133ZM386.604 196.858C386.848 196.858 387.07 196.797 387.27 196.675C387.47 196.553 387.629 196.389 387.745 196.183C387.868 195.978 387.929 195.75 387.929 195.5C387.929 195.25 387.868 195.022 387.745 194.817C387.629 194.611 387.47 194.447 387.27 194.325C387.07 194.203 386.848 194.142 386.604 194.142C386.359 194.142 386.137 194.203 385.937 194.325C385.737 194.447 385.576 194.611 385.454 194.817C385.337 195.022 385.279 195.25 385.279 195.5C385.279 195.75 385.337 195.978 385.454 196.183C385.576 196.389 385.737 196.553 385.937 196.675C386.137 196.797 386.359 196.858 386.604 196.858ZM390.826 198.167C390.571 198.167 390.357 198.081 390.185 197.908C390.012 197.736 389.926 197.522 389.926 197.267C389.926 197.011 390.012 196.797 390.185 196.625C390.357 196.453 390.571 196.367 390.826 196.367C391.087 196.367 391.301 196.453 391.468 196.625C391.64 196.797 391.726 197.011 391.726 197.267C391.726 197.522 391.64 197.736 391.468 197.908C391.301 198.081 391.087 198.167 390.826 198.167Z" fill="#EAEAEA"/>
<path fill-rule="evenodd" clip-rule="evenodd" d="M310.134 286C314.131 301.527 328.225 313 345 313H400C416.775 313 430.869 301.527 434.866 286H310.134Z" fill="#064335"/>
<path d="M325.825 301V293.5H328.117C328.661 293.5 329.125 293.608 329.508 293.825C329.897 294.042 330.194 294.331 330.4 294.692C330.606 295.047 330.708 295.439 330.708 295.867C330.708 296.256 330.622 296.608 330.45 296.925C330.283 297.242 330.044 297.503 329.733 297.708L331.717 301H330.075L328.408 298.15H327.275V301H325.825ZM327.275 296.9H328.083C328.356 296.9 328.578 296.85 328.75 296.75C328.922 296.644 329.05 296.514 329.133 296.358C329.217 296.197 329.258 296.033 329.258 295.867C329.258 295.572 329.15 295.331 328.933 295.142C328.717 294.947 328.433 294.85 328.083 294.85H327.275V296.9ZM334.14 301.133C333.679 301.133 333.259 301.014 332.882 300.775C332.504 300.536 332.201 300.219 331.973 299.825C331.751 299.425 331.64 298.983 331.64 298.5C331.64 298.017 331.751 297.575 331.973 297.175C332.201 296.775 332.504 296.458 332.882 296.225C333.259 295.986 333.679 295.867 334.14 295.867C334.462 295.867 334.757 295.925 335.023 296.042C335.29 296.153 335.518 296.308 335.707 296.508V296H336.957V301H335.707V300.492C335.518 300.692 335.29 300.85 335.023 300.967C334.757 301.078 334.462 301.133 334.14 301.133ZM334.315 299.858C334.559 299.858 334.782 299.797 334.982 299.675C335.182 299.553 335.34 299.389 335.457 299.183C335.579 298.978 335.64 298.75 335.64 298.5C335.64 298.25 335.579 298.022 335.457 297.817C335.34 297.611 335.182 297.447 334.982 297.325C334.782 297.203 334.559 297.142 334.315 297.142C334.07 297.142 333.848 297.203 333.648 297.325C333.448 297.447 333.287 297.611 333.165 297.817C333.048 298.022 332.99 298.25 332.99 298.5C332.99 298.75 333.048 298.978 333.165 299.183C333.287 299.389 333.448 299.553 333.648 299.675C333.848 299.797 334.07 299.858 334.315 299.858ZM338.054 301V296H339.354V296.55C339.532 296.317 339.751 296.139 340.012 296.017C340.273 295.894 340.554 295.833 340.854 295.833C341.209 295.833 341.54 295.919 341.846 296.092C342.157 296.258 342.407 296.506 342.596 296.833C342.79 297.156 342.887 297.547 342.887 298.008V301H341.437V298.2C341.437 297.922 341.354 297.675 341.187 297.458C341.021 297.242 340.782 297.133 340.471 297.133C340.221 297.133 339.996 297.219 339.796 297.392C339.601 297.558 339.504 297.822 339.504 298.183V301H338.054ZM347.215 301L345.223 298.25L346.865 296H348.423L346.807 298.125L348.923 301H347.215ZM343.89 301V293H345.34V301H343.89ZM349.485 301V296H350.935V301H349.485ZM350.21 295.275C349.993 295.275 349.81 295.2 349.66 295.05C349.51 294.9 349.435 294.717 349.435 294.5C349.435 294.278 349.51 294.094 349.66 293.95C349.81 293.8 349.993 293.725 350.21 293.725C350.432 293.725 350.615 293.8 350.76 293.95C350.91 294.094 350.985 294.278 350.985 294.5C350.985 294.717 350.91 294.9 350.76 295.05C350.615 295.2 350.432 295.275 350.21 295.275ZM352.046 301V296H353.346V296.55C353.524 296.317 353.743 296.139 354.004 296.017C354.266 295.894 354.546 295.833 354.846 295.833C355.202 295.833 355.532 295.919 355.838 296.092C356.149 296.258 356.399 296.506 356.588 296.833C356.782 297.156 356.879 297.547 356.879 298.008V301H355.429V298.2C355.429 297.922 355.346 297.675 355.179 297.458C355.013 297.242 354.774 297.133 354.463 297.133C354.213 297.133 353.988 297.219 353.788 297.392C353.593 297.558 353.496 297.822 353.496 298.183V301H352.046ZM360.065 303.667C359.676 303.667 359.304 303.608 358.949 303.492C358.599 303.381 358.296 303.228 358.04 303.033L358.39 301.6C358.568 301.839 358.801 302.033 359.09 302.183C359.379 302.339 359.704 302.417 360.065 302.417C360.576 302.417 360.974 302.269 361.257 301.975C361.54 301.686 361.682 301.314 361.682 300.858V300.508C361.493 300.703 361.265 300.856 360.999 300.967C360.738 301.078 360.449 301.133 360.132 301.133C359.671 301.133 359.251 301.014 358.874 300.775C358.496 300.536 358.193 300.219 357.965 299.825C357.743 299.425 357.632 298.983 357.632 298.5C357.632 298.017 357.743 297.575 357.965 297.175C358.193 296.775 358.496 296.458 358.874 296.225C359.251 295.986 359.671 295.867 360.132 295.867C360.454 295.867 360.749 295.925 361.015 296.042C361.282 296.153 361.51 296.308 361.699 296.508V296H362.949V301.067C362.949 301.611 362.815 302.078 362.549 302.467C362.282 302.856 361.929 303.153 361.49 303.358C361.051 303.564 360.576 303.667 360.065 303.667ZM360.307 299.858C360.551 299.858 360.774 299.797 360.974 299.675C361.174 299.553 361.332 299.389 361.449 299.183C361.571 298.978 361.632 298.75 361.632 298.5C361.632 298.25 361.571 298.022 361.449 297.817C361.332 297.611 361.174 297.447 360.974 297.325C360.774 297.203 360.551 297.142 360.307 297.142C360.063 297.142 359.84 297.203 359.64 297.325C359.44 297.447 359.279 297.611 359.157 297.817C359.04 298.022 358.982 298.25 358.982 298.5C358.982 298.75 359.04 298.978 359.157 299.183C359.279 299.389 359.44 299.553 359.64 299.675C359.84 299.797 360.063 299.858 360.307 299.858ZM366.792 301V293.5H369.142C369.642 293.5 370.039 293.597 370.334 293.792C370.634 293.981 370.848 294.211 370.976 294.483C371.103 294.75 371.167 295.006 371.167 295.25C371.167 295.467 371.126 295.672 371.042 295.867C370.959 296.056 370.842 296.222 370.692 296.367C371.037 296.583 371.314 296.872 371.526 297.233C371.737 297.589 371.842 297.986 371.842 298.425C371.842 298.853 371.737 299.264 371.526 299.658C371.314 300.053 371.001 300.375 370.584 300.625C370.167 300.875 369.653 301 369.042 301H366.792ZM368.242 299.65H368.892C369.226 299.65 369.492 299.586 369.692 299.458C369.898 299.325 370.045 299.161 370.134 298.967C370.228 298.767 370.276 298.569 370.276 298.375C370.276 298.186 370.231 297.994 370.142 297.8C370.053 297.6 369.906 297.433 369.701 297.3C369.501 297.167 369.231 297.1 368.892 297.1H368.242V299.65ZM368.242 296.05H368.892C369.153 296.05 369.364 295.989 369.526 295.867C369.687 295.744 369.767 295.567 369.767 295.333C369.767 295.089 369.687 294.906 369.526 294.783C369.37 294.661 369.17 294.6 368.926 294.6H368.242V296.05ZM373.063 301V293.5H375.355C375.899 293.5 376.363 293.608 376.747 293.825C377.136 294.042 377.433 294.331 377.638 294.692C377.844 295.047 377.947 295.439 377.947 295.867C377.947 296.256 377.861 296.608 377.688 296.925C377.522 297.242 377.283 297.503 376.972 297.708L378.955 301H377.313L375.647 298.15H374.513V301H373.063ZM374.513 296.9H375.322C375.594 296.9 375.816 296.85 375.988 296.75C376.161 296.644 376.288 296.514 376.372 296.358C376.455 296.197 376.497 296.033 376.497 295.867C376.497 295.572 376.388 295.331 376.172 295.142C375.955 294.947 375.672 294.85 375.322 294.85H374.513V296.9ZM380.906 297.9C380.651 297.9 380.437 297.814 380.265 297.642C380.092 297.469 380.006 297.256 380.006 297C380.006 296.744 380.092 296.531 380.265 296.358C380.437 296.186 380.651 296.1 380.906 296.1C381.167 296.1 381.381 296.186 381.548 296.358C381.72 296.531 381.806 296.744 381.806 297C381.806 297.256 381.72 297.469 381.548 297.642C381.381 297.814 381.167 297.9 380.906 297.9ZM380.906 300.9C380.651 300.9 380.437 300.814 380.265 300.642C380.092 300.469 380.006 300.256 380.006 300C380.006 299.744 380.092 299.531 380.265 299.358C380.437 299.186 380.651 299.1 380.906 299.1C381.167 299.1 381.381 299.186 381.548 299.358C381.72 299.531 381.806 299.744 381.806 300C381.806 300.256 381.72 300.469 381.548 300.642C381.381 300.814 381.167 300.9 380.906 300.9Z" fill="#EAEAEA"/>
<path fill-rule="evenodd" clip-rule="evenodd" d="M458 196C458 176.118 474.118 160 494 160H549C568.882 160 585 176.118 585 196V203V234V239V270V277C585 296.882 568.882 313 549 313H494C474.118 313 458 296.882 458 277V270V239V234V203V196Z" fill="#75BB96"/>
<path fill-rule="evenodd" clip-rule="evenodd" d="M494 160C474.118 160 458 176.118 458 196V212H585V196C585 176.118 568.882 160 549 160H494Z" fill="#064335"/>
<path d="M481.117 181V168.5H485.367C486.367 168.5 487.274 168.662 488.089 168.986C488.913 169.31 489.621 169.759 490.214 170.333C490.816 170.898 491.279 171.56 491.603 172.319C491.927 173.079 492.089 173.889 492.089 174.75C492.089 175.611 491.927 176.421 491.603 177.181C491.279 177.94 490.816 178.606 490.214 179.181C489.621 179.745 488.913 180.19 488.089 180.514C487.274 180.838 486.367 181 485.367 181H481.117ZM483.533 178.75H485.144C485.848 178.75 486.468 178.648 487.005 178.444C487.542 178.231 487.992 177.944 488.353 177.583C488.723 177.213 489.001 176.787 489.186 176.306C489.38 175.824 489.478 175.306 489.478 174.75C489.478 174.194 489.38 173.676 489.186 173.194C489.001 172.704 488.723 172.278 488.353 171.917C487.992 171.546 487.542 171.259 487.005 171.056C486.468 170.852 485.848 170.75 485.144 170.75H483.533V178.75ZM498.066 181.278C497.131 181.278 496.307 181.083 495.594 180.694C494.881 180.306 494.325 179.773 493.927 179.097C493.529 178.412 493.33 177.63 493.33 176.75C493.33 175.907 493.525 175.162 493.913 174.514C494.302 173.856 494.825 173.338 495.483 172.958C496.15 172.579 496.886 172.389 497.691 172.389C498.515 172.389 499.251 172.579 499.9 172.958C500.548 173.329 501.057 173.838 501.427 174.486C501.807 175.134 501.997 175.87 501.997 176.694V177.542H496.913C496.682 177.542 496.46 177.528 496.247 177.5C496.034 177.472 495.821 177.44 495.608 177.403C495.719 177.958 495.992 178.412 496.427 178.764C496.872 179.106 497.437 179.278 498.122 179.278C498.65 179.278 499.122 179.171 499.538 178.958C499.964 178.745 500.312 178.481 500.58 178.167L501.108 180.333C500.691 180.648 500.219 180.884 499.691 181.042C499.173 181.199 498.631 181.278 498.066 181.278ZM495.552 175.944C496.015 175.843 496.469 175.792 496.913 175.792H498.386C498.645 175.792 498.89 175.801 499.122 175.819C499.353 175.838 499.571 175.87 499.775 175.917C499.636 175.417 499.381 175.023 499.011 174.736C498.65 174.449 498.2 174.306 497.663 174.306C497.154 174.306 496.71 174.454 496.33 174.75C495.96 175.037 495.7 175.435 495.552 175.944ZM503.337 181V172.667H505.503V173.583C505.8 173.194 506.165 172.898 506.6 172.694C507.036 172.491 507.503 172.389 508.003 172.389C508.596 172.389 509.147 172.532 509.656 172.819C510.175 173.097 510.591 173.509 510.906 174.056C511.23 174.593 511.392 175.245 511.392 176.014V181H508.975V176.333C508.975 175.87 508.837 175.458 508.559 175.097C508.281 174.736 507.883 174.556 507.364 174.556C506.948 174.556 506.573 174.699 506.239 174.986C505.915 175.264 505.753 175.704 505.753 176.306V181H503.337ZM515.799 181.278C515.234 181.278 514.66 181.185 514.077 181C513.503 180.815 513.054 180.565 512.73 180.25L513.327 177.972C513.596 178.343 513.966 178.667 514.438 178.944C514.92 179.222 515.415 179.361 515.924 179.361C516.267 179.361 516.512 179.296 516.66 179.167C516.818 179.037 516.896 178.88 516.896 178.694C516.896 178.481 516.818 178.329 516.66 178.236C516.503 178.134 516.341 178.051 516.174 177.986L515.008 177.542C514.748 177.44 514.452 177.301 514.119 177.125C513.785 176.949 513.494 176.699 513.244 176.375C513.003 176.051 512.883 175.625 512.883 175.097C512.883 174.616 513.003 174.171 513.244 173.764C513.484 173.356 513.832 173.028 514.285 172.778C514.748 172.519 515.304 172.389 515.952 172.389C516.554 172.389 517.114 172.491 517.633 172.694C518.16 172.898 518.545 173.125 518.785 173.375L518.23 175.569C517.915 175.162 517.54 174.852 517.105 174.639C516.679 174.417 516.271 174.306 515.883 174.306C515.586 174.306 515.369 174.366 515.23 174.486C515.091 174.606 515.021 174.745 515.021 174.903C515.021 175.023 515.068 175.144 515.16 175.264C515.262 175.375 515.429 175.477 515.66 175.569L516.744 175.972C517.059 176.083 517.392 176.231 517.744 176.417C518.105 176.602 518.41 176.861 518.66 177.194C518.91 177.519 519.035 177.968 519.035 178.542C519.035 179.347 518.734 180.005 518.133 180.514C517.54 181.023 516.762 181.278 515.799 181.278ZM520.454 181V172.667H522.871V181H520.454ZM521.663 171.458C521.301 171.458 520.996 171.333 520.746 171.083C520.496 170.833 520.371 170.528 520.371 170.167C520.371 169.796 520.496 169.491 520.746 169.25C520.996 169 521.301 168.875 521.663 168.875C522.033 168.875 522.338 169 522.579 169.25C522.829 169.491 522.954 169.796 522.954 170.167C522.954 170.528 522.829 170.833 522.579 171.083C522.338 171.333 522.033 171.458 521.663 171.458ZM528.487 181.222C527.709 181.222 527.006 181.023 526.376 180.625C525.746 180.227 525.242 179.699 524.862 179.042C524.492 178.375 524.307 177.639 524.307 176.833C524.307 176.028 524.492 175.292 524.862 174.625C525.242 173.958 525.746 173.431 526.376 173.042C527.006 172.644 527.709 172.444 528.487 172.444C528.932 172.444 529.344 172.509 529.723 172.639C530.103 172.769 530.446 172.954 530.751 173.194V167.667H533.168V181H531.084V180.181C530.77 180.505 530.39 180.759 529.946 180.944C529.501 181.13 529.015 181.222 528.487 181.222ZM528.765 179.097C529.172 179.097 529.543 178.995 529.876 178.792C530.209 178.588 530.473 178.315 530.668 177.972C530.871 177.63 530.973 177.25 530.973 176.833C530.973 176.417 530.871 176.037 530.668 175.694C530.473 175.352 530.209 175.079 529.876 174.875C529.543 174.671 529.172 174.569 528.765 174.569C528.358 174.569 527.987 174.671 527.654 174.875C527.321 175.079 527.052 175.352 526.848 175.694C526.654 176.037 526.557 176.417 526.557 176.833C526.557 177.25 526.654 177.63 526.848 177.972C527.052 178.315 527.321 178.588 527.654 178.792C527.987 178.995 528.358 179.097 528.765 179.097ZM538.747 181.222C537.978 181.222 537.279 181.023 536.65 180.625C536.02 180.227 535.515 179.699 535.136 179.042C534.765 178.375 534.58 177.639 534.58 176.833C534.58 176.028 534.765 175.292 535.136 174.625C535.515 173.958 536.02 173.431 536.65 173.042C537.279 172.644 537.978 172.444 538.747 172.444C539.284 172.444 539.775 172.542 540.219 172.736C540.663 172.921 541.043 173.181 541.358 173.514V172.667H543.441V181H541.358V180.153C541.043 180.486 540.663 180.75 540.219 180.944C539.775 181.13 539.284 181.222 538.747 181.222ZM539.038 179.097C539.446 179.097 539.816 178.995 540.15 178.792C540.483 178.588 540.747 178.315 540.941 177.972C541.145 177.63 541.247 177.25 541.247 176.833C541.247 176.417 541.145 176.037 540.941 175.694C540.747 175.352 540.483 175.079 540.15 174.875C539.816 174.671 539.446 174.569 539.038 174.569C538.631 174.569 538.261 174.671 537.927 174.875C537.594 175.079 537.325 175.352 537.122 175.694C536.927 176.037 536.83 176.417 536.83 176.833C536.83 177.25 536.927 177.63 537.122 177.972C537.325 178.315 537.594 178.588 537.927 178.792C538.261 178.995 538.631 179.097 539.038 179.097ZM549.034 181.222C548.256 181.222 547.553 181.023 546.923 180.625C546.293 180.227 545.789 179.699 545.409 179.042C545.039 178.375 544.854 177.639 544.854 176.833C544.854 176.028 545.039 175.292 545.409 174.625C545.789 173.958 546.293 173.431 546.923 173.042C547.553 172.644 548.256 172.444 549.034 172.444C549.479 172.444 549.891 172.509 550.27 172.639C550.65 172.769 550.992 172.954 551.298 173.194V167.667H553.715V181H551.631V180.181C551.316 180.505 550.937 180.759 550.492 180.944C550.048 181.13 549.562 181.222 549.034 181.222ZM549.312 179.097C549.719 179.097 550.09 178.995 550.423 178.792C550.756 178.588 551.02 178.315 551.215 177.972C551.418 177.63 551.52 177.25 551.52 176.833C551.52 176.417 551.418 176.037 551.215 175.694C551.02 175.352 550.756 175.079 550.423 174.875C550.09 174.671 549.719 174.569 549.312 174.569C548.904 174.569 548.534 174.671 548.201 174.875C547.867 175.079 547.599 175.352 547.395 175.694C547.201 176.037 547.104 176.417 547.104 176.833C547.104 177.25 547.201 177.63 547.395 177.972C547.599 178.315 547.867 178.588 548.201 178.792C548.534 178.995 548.904 179.097 549.312 179.097ZM559.863 181.278C558.928 181.278 558.104 181.083 557.391 180.694C556.678 180.306 556.122 179.773 555.724 179.097C555.326 178.412 555.127 177.63 555.127 176.75C555.127 175.907 555.321 175.162 555.71 174.514C556.099 173.856 556.622 173.338 557.28 172.958C557.946 172.579 558.683 172.389 559.488 172.389C560.312 172.389 561.048 172.579 561.696 172.958C562.345 173.329 562.854 173.838 563.224 174.486C563.604 175.134 563.794 175.87 563.794 176.694V177.542H558.71C558.479 177.542 558.257 177.528 558.044 177.5C557.831 177.472 557.618 177.44 557.405 177.403C557.516 177.958 557.789 178.412 558.224 178.764C558.669 179.106 559.233 179.278 559.919 179.278C560.446 179.278 560.919 179.171 561.335 178.958C561.761 178.745 562.108 178.481 562.377 178.167L562.905 180.333C562.488 180.648 562.016 180.884 561.488 181.042C560.97 181.199 560.428 181.278 559.863 181.278ZM557.349 175.944C557.812 175.843 558.266 175.792 558.71 175.792H560.183C560.442 175.792 560.687 175.801 560.919 175.819C561.15 175.838 561.368 175.87 561.571 175.917C561.433 175.417 561.178 175.023 560.808 174.736C560.446 174.449 559.997 174.306 559.46 174.306C558.951 174.306 558.507 174.454 558.127 174.75C557.757 175.037 557.497 175.435 557.349 175.944ZM471.605 205V192.5H475.855C476.855 192.5 477.762 192.662 478.577 192.986C479.401 193.31 480.109 193.759 480.702 194.333C481.304 194.898 481.767 195.56 482.091 196.319C482.415 197.079 482.577 197.889 482.577 198.75C482.577 199.611 482.415 200.421 482.091 201.181C481.767 201.94 481.304 202.606 480.702 203.181C480.109 203.745 479.401 204.19 478.577 204.514C477.762 204.838 476.855 205 475.855 205H471.605ZM474.021 202.75H475.633C476.336 202.75 476.957 202.648 477.494 202.444C478.031 202.231 478.48 201.944 478.841 201.583C479.211 201.213 479.489 200.787 479.674 200.306C479.869 199.824 479.966 199.306 479.966 198.75C479.966 198.194 479.869 197.676 479.674 197.194C479.489 196.704 479.211 196.278 478.841 195.917C478.48 195.546 478.031 195.259 477.494 195.056C476.957 194.852 476.336 194.75 475.633 194.75H474.021V202.75ZM488.554 205.278C487.619 205.278 486.795 205.083 486.082 204.694C485.369 204.306 484.814 203.773 484.416 203.097C484.017 202.412 483.818 201.63 483.818 200.75C483.818 199.907 484.013 199.162 484.402 198.514C484.791 197.856 485.314 197.338 485.971 196.958C486.638 196.579 487.374 196.389 488.179 196.389C489.004 196.389 489.74 196.579 490.388 196.958C491.036 197.329 491.545 197.838 491.916 198.486C492.295 199.134 492.485 199.87 492.485 200.694V201.542H487.402C487.17 201.542 486.948 201.528 486.735 201.5C486.522 201.472 486.309 201.44 486.096 201.403C486.207 201.958 486.48 202.412 486.916 202.764C487.36 203.106 487.925 203.278 488.61 203.278C489.138 203.278 489.61 203.171 490.027 202.958C490.453 202.745 490.8 202.481 491.068 202.167L491.596 204.333C491.179 204.648 490.707 204.884 490.179 205.042C489.661 205.199 489.119 205.278 488.554 205.278ZM486.041 199.944C486.504 199.843 486.957 199.792 487.402 199.792H488.874C489.133 199.792 489.379 199.801 489.61 199.819C489.842 199.838 490.059 199.87 490.263 199.917C490.124 199.417 489.869 199.023 489.499 198.736C489.138 198.449 488.689 198.306 488.152 198.306C487.642 198.306 487.198 198.454 486.818 198.75C486.448 199.037 486.189 199.435 486.041 199.944ZM493.825 205V196.667H495.992V197.583C496.288 197.194 496.654 196.898 497.089 196.694C497.533 196.491 497.996 196.389 498.478 196.389C498.968 196.389 499.431 196.491 499.867 196.694C500.302 196.898 500.667 197.194 500.964 197.583C501.288 197.194 501.691 196.898 502.172 196.694C502.654 196.491 503.177 196.389 503.742 196.389C504.334 196.389 504.89 196.528 505.408 196.806C505.927 197.074 506.348 197.472 506.672 198C506.996 198.519 507.158 199.153 507.158 199.903V205H504.742V200.25C504.742 199.806 504.612 199.412 504.353 199.069C504.093 198.727 503.718 198.556 503.228 198.556C502.968 198.556 502.718 198.62 502.478 198.75C502.246 198.87 502.056 199.056 501.908 199.306C501.769 199.546 501.7 199.852 501.7 200.222V205H499.283V200.25C499.283 199.954 499.223 199.676 499.103 199.417C498.992 199.157 498.82 198.949 498.589 198.792C498.367 198.634 498.093 198.556 497.769 198.556C497.51 198.556 497.26 198.62 497.019 198.75C496.788 198.87 496.598 199.056 496.45 199.306C496.311 199.546 496.242 199.852 496.242 200.222V205H493.825ZM512.908 205.278C512.084 205.278 511.329 205.079 510.644 204.681C509.959 204.282 509.413 203.745 509.005 203.069C508.607 202.394 508.408 201.648 508.408 200.833C508.408 200.009 508.607 199.264 509.005 198.597C509.413 197.921 509.959 197.384 510.644 196.986C511.329 196.588 512.084 196.389 512.908 196.389C513.742 196.389 514.496 196.588 515.172 196.986C515.857 197.384 516.399 197.921 516.797 198.597C517.204 199.264 517.408 200.009 517.408 200.833C517.408 201.648 517.204 202.394 516.797 203.069C516.399 203.745 515.857 204.282 515.172 204.681C514.496 205.079 513.742 205.278 512.908 205.278ZM512.908 203.111C513.325 203.111 513.7 203.009 514.033 202.806C514.376 202.602 514.644 202.329 514.839 201.986C515.042 201.634 515.144 201.25 515.144 200.833C515.144 200.407 515.042 200.023 514.839 199.681C514.644 199.338 514.376 199.065 514.033 198.861C513.7 198.657 513.325 198.556 512.908 198.556C512.492 198.556 512.112 198.657 511.769 198.861C511.436 199.065 511.167 199.338 510.964 199.681C510.769 200.023 510.672 200.407 510.672 200.833C510.672 201.25 510.769 201.634 510.964 201.986C511.167 202.329 511.436 202.602 511.769 202.806C512.112 203.009 512.492 203.111 512.908 203.111ZM522.464 209.444C521.816 209.444 521.195 209.347 520.603 209.153C520.019 208.968 519.515 208.713 519.089 208.389L519.672 206C519.968 206.398 520.357 206.722 520.839 206.972C521.32 207.231 521.862 207.361 522.464 207.361C523.316 207.361 523.978 207.116 524.45 206.625C524.922 206.144 525.158 205.523 525.158 204.764V204.181C524.843 204.505 524.464 204.759 524.019 204.944C523.584 205.13 523.103 205.222 522.575 205.222C521.806 205.222 521.107 205.023 520.478 204.625C519.848 204.227 519.343 203.699 518.964 203.042C518.593 202.375 518.408 201.639 518.408 200.833C518.408 200.028 518.593 199.292 518.964 198.625C519.343 197.958 519.848 197.431 520.478 197.042C521.107 196.644 521.806 196.444 522.575 196.444C523.112 196.444 523.603 196.542 524.047 196.736C524.492 196.921 524.871 197.181 525.186 197.514V196.667H527.269V205.111C527.269 206.019 527.047 206.796 526.603 207.444C526.158 208.093 525.57 208.588 524.839 208.931C524.107 209.273 523.316 209.444 522.464 209.444ZM522.867 203.097C523.274 203.097 523.644 202.995 523.978 202.792C524.311 202.588 524.575 202.315 524.769 201.972C524.973 201.63 525.075 201.25 525.075 200.833C525.075 200.417 524.973 200.037 524.769 199.694C524.575 199.352 524.311 199.079 523.978 198.875C523.644 198.671 523.274 198.569 522.867 198.569C522.459 198.569 522.089 198.671 521.755 198.875C521.422 199.079 521.154 199.352 520.95 199.694C520.755 200.037 520.658 200.417 520.658 200.833C520.658 201.25 520.755 201.63 520.95 201.972C521.154 202.315 521.422 202.588 521.755 202.792C522.089 202.995 522.459 203.097 522.867 203.097ZM529.098 205V196.667H531.265V198.097C531.552 197.616 531.913 197.245 532.348 196.986C532.793 196.718 533.311 196.583 533.904 196.583L534.432 198.722C534.256 198.667 534.057 198.639 533.834 198.639C533.14 198.639 532.58 198.866 532.154 199.319C531.728 199.764 531.515 200.403 531.515 201.236V205H529.098ZM538.962 205.222C538.193 205.222 537.494 205.023 536.864 204.625C536.235 204.227 535.73 203.699 535.35 203.042C534.98 202.375 534.795 201.639 534.795 200.833C534.795 200.028 534.98 199.292 535.35 198.625C535.73 197.958 536.235 197.431 536.864 197.042C537.494 196.644 538.193 196.444 538.962 196.444C539.499 196.444 539.989 196.542 540.434 196.736C540.878 196.921 541.258 197.181 541.573 197.514V196.667H543.656V205H541.573V204.153C541.258 204.486 540.878 204.75 540.434 204.944C539.989 205.13 539.499 205.222 538.962 205.222ZM539.253 203.097C539.661 203.097 540.031 202.995 540.364 202.792C540.698 202.588 540.962 202.315 541.156 201.972C541.36 201.63 541.462 201.25 541.462 200.833C541.462 200.417 541.36 200.037 541.156 199.694C540.962 199.352 540.698 199.079 540.364 198.875C540.031 198.671 539.661 198.569 539.253 198.569C538.846 198.569 538.475 198.671 538.142 198.875C537.809 199.079 537.54 199.352 537.337 199.694C537.142 200.037 537.045 200.417 537.045 200.833C537.045 201.25 537.142 201.63 537.337 201.972C537.54 202.315 537.809 202.588 538.142 202.792C538.475 202.995 538.846 203.097 539.253 203.097ZM538.267 195.583L539.545 192.75H542.17L540.17 195.583H538.267ZM546.457 205V198.583H544.902V196.667H546.499V195.361C546.499 194.537 546.689 193.838 547.068 193.264C547.457 192.69 547.967 192.255 548.596 191.958C549.235 191.653 549.929 191.5 550.679 191.5C551.781 191.5 552.707 191.778 553.457 192.333L552.916 194.542C552.684 194.227 552.388 193.977 552.027 193.792C551.666 193.597 551.267 193.5 550.832 193.5C550.23 193.5 549.744 193.681 549.374 194.042C549.013 194.403 548.832 194.898 548.832 195.528V196.667H554.207V205H551.791V198.583H548.874V205H546.457ZM560.115 205.278C559.291 205.278 558.537 205.079 557.851 204.681C557.166 204.282 556.62 203.745 556.212 203.069C555.814 202.394 555.615 201.648 555.615 200.833C555.615 200.009 555.814 199.264 556.212 198.597C556.62 197.921 557.166 197.384 557.851 196.986C558.537 196.588 559.291 196.389 560.115 196.389C560.689 196.389 561.231 196.486 561.74 196.681C562.259 196.866 562.717 197.144 563.115 197.514L562.49 199.972C562.259 199.593 561.949 199.264 561.56 198.986C561.18 198.699 560.731 198.556 560.212 198.556C559.777 198.556 559.388 198.657 559.046 198.861C558.703 199.065 558.435 199.338 558.24 199.681C558.046 200.023 557.949 200.407 557.949 200.833C557.949 201.25 558.046 201.634 558.24 201.986C558.435 202.329 558.703 202.602 559.046 202.806C559.388 203.009 559.777 203.111 560.212 203.111C560.731 203.111 561.18 202.972 561.56 202.694C561.949 202.407 562.259 202.074 562.49 201.694L563.115 204.153C562.717 204.523 562.259 204.806 561.74 205C561.231 205.185 560.689 205.278 560.115 205.278ZM568.122 205.222C567.353 205.222 566.654 205.023 566.025 204.625C565.395 204.227 564.89 203.699 564.511 203.042C564.14 202.375 563.955 201.639 563.955 200.833C563.955 200.028 564.14 199.292 564.511 198.625C564.89 197.958 565.395 197.431 566.025 197.042C566.654 196.644 567.353 196.444 568.122 196.444C568.659 196.444 569.15 196.542 569.594 196.736C570.038 196.921 570.418 197.181 570.733 197.514V196.667H572.816V205H570.733V204.153C570.418 204.486 570.038 204.75 569.594 204.944C569.15 205.13 568.659 205.222 568.122 205.222ZM568.413 203.097C568.821 203.097 569.191 202.995 569.525 202.792C569.858 202.588 570.122 202.315 570.316 201.972C570.52 201.63 570.622 201.25 570.622 200.833C570.622 200.417 570.52 200.037 570.316 199.694C570.122 199.352 569.858 199.079 569.525 198.875C569.191 198.671 568.821 198.569 568.413 198.569C568.006 198.569 567.636 198.671 567.302 198.875C566.969 199.079 566.7 199.352 566.497 199.694C566.302 200.037 566.205 200.417 566.205 200.833C566.205 201.25 566.302 201.63 566.497 201.972C566.7 202.315 566.969 202.588 567.302 202.792C567.636 202.995 568.006 203.097 568.413 203.097Z" fill="#EAEAEA"/>
<path fill-rule="evenodd" clip-rule="evenodd" d="M459.134 286C463.131 301.527 477.225 313 494 313H549C565.775 313 579.869 301.527 583.866 286H459.134Z" fill="#064335"/>
<path d="M474.825 301V293.5H477.117C477.661 293.5 478.125 293.608 478.508 293.825C478.897 294.042 479.194 294.331 479.4 294.692C479.606 295.047 479.708 295.439 479.708 295.867C479.708 296.256 479.622 296.608 479.45 296.925C479.283 297.242 479.044 297.503 478.733 297.708L480.717 301H479.075L477.408 298.15H476.275V301H474.825ZM476.275 296.9H477.083C477.356 296.9 477.578 296.85 477.75 296.75C477.922 296.644 478.05 296.514 478.133 296.358C478.217 296.197 478.258 296.033 478.258 295.867C478.258 295.572 478.15 295.331 477.933 295.142C477.717 294.947 477.433 294.85 477.083 294.85H476.275V296.9ZM483.14 301.133C482.679 301.133 482.259 301.014 481.882 300.775C481.504 300.536 481.201 300.219 480.973 299.825C480.751 299.425 480.64 298.983 480.64 298.5C480.64 298.017 480.751 297.575 480.973 297.175C481.201 296.775 481.504 296.458 481.882 296.225C482.259 295.986 482.679 295.867 483.14 295.867C483.462 295.867 483.757 295.925 484.023 296.042C484.29 296.153 484.518 296.308 484.707 296.508V296H485.957V301H484.707V300.492C484.518 300.692 484.29 300.85 484.023 300.967C483.757 301.078 483.462 301.133 483.14 301.133ZM483.315 299.858C483.559 299.858 483.782 299.797 483.982 299.675C484.182 299.553 484.34 299.389 484.457 299.183C484.579 298.978 484.64 298.75 484.64 298.5C484.64 298.25 484.579 298.022 484.457 297.817C484.34 297.611 484.182 297.447 483.982 297.325C483.782 297.203 483.559 297.142 483.315 297.142C483.07 297.142 482.848 297.203 482.648 297.325C482.448 297.447 482.287 297.611 482.165 297.817C482.048 298.022 481.99 298.25 481.99 298.5C481.99 298.75 482.048 298.978 482.165 299.183C482.287 299.389 482.448 299.553 482.648 299.675C482.848 299.797 483.07 299.858 483.315 299.858ZM487.054 301V296H488.354V296.55C488.532 296.317 488.751 296.139 489.012 296.017C489.273 295.894 489.554 295.833 489.854 295.833C490.209 295.833 490.54 295.919 490.846 296.092C491.157 296.258 491.407 296.506 491.596 296.833C491.79 297.156 491.887 297.547 491.887 298.008V301H490.437V298.2C490.437 297.922 490.354 297.675 490.187 297.458C490.021 297.242 489.782 297.133 489.471 297.133C489.221 297.133 488.996 297.219 488.796 297.392C488.601 297.558 488.504 297.822 488.504 298.183V301H487.054ZM496.215 301L494.223 298.25L495.865 296H497.423L495.807 298.125L497.923 301H496.215ZM492.89 301V293H494.34V301H492.89ZM498.485 301V296H499.935V301H498.485ZM499.21 295.275C498.993 295.275 498.81 295.2 498.66 295.05C498.51 294.9 498.435 294.717 498.435 294.5C498.435 294.278 498.51 294.094 498.66 293.95C498.81 293.8 498.993 293.725 499.21 293.725C499.432 293.725 499.615 293.8 499.76 293.95C499.91 294.094 499.985 294.278 499.985 294.5C499.985 294.717 499.91 294.9 499.76 295.05C499.615 295.2 499.432 295.275 499.21 295.275ZM501.046 301V296H502.346V296.55C502.524 296.317 502.743 296.139 503.004 296.017C503.266 295.894 503.546 295.833 503.846 295.833C504.202 295.833 504.532 295.919 504.838 296.092C505.149 296.258 505.399 296.506 505.588 296.833C505.782 297.156 505.879 297.547 505.879 298.008V301H504.429V298.2C504.429 297.922 504.346 297.675 504.179 297.458C504.013 297.242 503.774 297.133 503.463 297.133C503.213 297.133 502.988 297.219 502.788 297.392C502.593 297.558 502.496 297.822 502.496 298.183V301H501.046ZM509.065 303.667C508.676 303.667 508.304 303.608 507.949 303.492C507.599 303.381 507.296 303.228 507.04 303.033L507.39 301.6C507.568 301.839 507.801 302.033 508.09 302.183C508.379 302.339 508.704 302.417 509.065 302.417C509.576 302.417 509.974 302.269 510.257 301.975C510.54 301.686 510.682 301.314 510.682 300.858V300.508C510.493 300.703 510.265 300.856 509.999 300.967C509.738 301.078 509.449 301.133 509.132 301.133C508.671 301.133 508.251 301.014 507.874 300.775C507.496 300.536 507.193 300.219 506.965 299.825C506.743 299.425 506.632 298.983 506.632 298.5C506.632 298.017 506.743 297.575 506.965 297.175C507.193 296.775 507.496 296.458 507.874 296.225C508.251 295.986 508.671 295.867 509.132 295.867C509.454 295.867 509.749 295.925 510.015 296.042C510.282 296.153 510.51 296.308 510.699 296.508V296H511.949V301.067C511.949 301.611 511.815 302.078 511.549 302.467C511.282 302.856 510.929 303.153 510.49 303.358C510.051 303.564 509.576 303.667 509.065 303.667ZM509.307 299.858C509.551 299.858 509.774 299.797 509.974 299.675C510.174 299.553 510.332 299.389 510.449 299.183C510.571 298.978 510.632 298.75 510.632 298.5C510.632 298.25 510.571 298.022 510.449 297.817C510.332 297.611 510.174 297.447 509.974 297.325C509.774 297.203 509.551 297.142 509.307 297.142C509.063 297.142 508.84 297.203 508.64 297.325C508.44 297.447 508.279 297.611 508.157 297.817C508.04 298.022 507.982 298.25 507.982 298.5C507.982 298.75 508.04 298.978 508.157 299.183C508.279 299.389 508.44 299.553 508.64 299.675C508.84 299.797 509.063 299.858 509.307 299.858ZM515.792 301V293.5H518.142C518.642 293.5 519.039 293.597 519.334 293.792C519.634 293.981 519.848 294.211 519.976 294.483C520.103 294.75 520.167 295.006 520.167 295.25C520.167 295.467 520.126 295.672 520.042 295.867C519.959 296.056 519.842 296.222 519.692 296.367C520.037 296.583 520.314 296.872 520.526 297.233C520.737 297.589 520.842 297.986 520.842 298.425C520.842 298.853 520.737 299.264 520.526 299.658C520.314 300.053 520.001 300.375 519.584 300.625C519.167 300.875 518.653 301 518.042 301H515.792ZM517.242 299.65H517.892C518.226 299.65 518.492 299.586 518.692 299.458C518.898 299.325 519.045 299.161 519.134 298.967C519.228 298.767 519.276 298.569 519.276 298.375C519.276 298.186 519.231 297.994 519.142 297.8C519.053 297.6 518.906 297.433 518.701 297.3C518.501 297.167 518.231 297.1 517.892 297.1H517.242V299.65ZM517.242 296.05H517.892C518.153 296.05 518.364 295.989 518.526 295.867C518.687 295.744 518.767 295.567 518.767 295.333C518.767 295.089 518.687 294.906 518.526 294.783C518.37 294.661 518.17 294.6 517.926 294.6H517.242V296.05ZM522.063 301V293.5H524.355C524.899 293.5 525.363 293.608 525.747 293.825C526.136 294.042 526.433 294.331 526.638 294.692C526.844 295.047 526.947 295.439 526.947 295.867C526.947 296.256 526.861 296.608 526.688 296.925C526.522 297.242 526.283 297.503 525.972 297.708L527.955 301H526.313L524.647 298.15H523.513V301H522.063ZM523.513 296.9H524.322C524.594 296.9 524.816 296.85 524.988 296.75C525.161 296.644 525.288 296.514 525.372 296.358C525.455 296.197 525.497 296.033 525.497 295.867C525.497 295.572 525.388 295.331 525.172 295.142C524.955 294.947 524.672 294.85 524.322 294.85H523.513V296.9ZM529.906 297.9C529.651 297.9 529.437 297.814 529.265 297.642C529.092 297.469 529.006 297.256 529.006 297C529.006 296.744 529.092 296.531 529.265 296.358C529.437 296.186 529.651 296.1 529.906 296.1C530.167 296.1 530.381 296.186 530.548 296.358C530.72 296.531 530.806 296.744 530.806 297C530.806 297.256 530.72 297.469 530.548 297.642C530.381 297.814 530.167 297.9 529.906 297.9ZM529.906 300.9C529.651 300.9 529.437 300.814 529.265 300.642C529.092 300.469 529.006 300.256 529.006 300C529.006 299.744 529.092 299.531 529.265 299.358C529.437 299.186 529.651 299.1 529.906 299.1C530.167 299.1 530.381 299.186 530.548 299.358C530.72 299.531 530.806 299.744 530.806 300C530.806 300.256 530.72 300.469 530.548 300.642C530.381 300.814 530.167 300.9 529.906 300.9Z" fill="#EAEAEA"/>
<rect x="22.1793" y="600" width="550" height="221" rx="44" fill="url(#paint2_linear_7_2)"/>
<path fill-rule="evenodd" clip-rule="evenodd" d="M66 600C41.6995 600 22 619.699 22 644V660H572V644C572 619.699 552.301 600 528 600H66Z" fill="#064335"/>
<g clip-path="url(#clip0_7_2)">
<path d="M54.2305 624.055V619.892C54.2305 619.541 54.3633 619.278 54.6729 619.103L63.1228 614.283C64.2731 613.626 65.6446 613.319 67.06 613.319C72.3688 613.319 75.7312 617.395 75.7312 621.732C75.7312 622.039 75.7312 622.39 75.6867 622.74L66.9273 617.657C66.3965 617.351 65.8655 617.351 65.3346 617.657L54.2305 624.055ZM73.9614 640.268V630.321C73.9614 629.707 73.6958 629.269 73.165 628.962L62.061 622.565L65.6886 620.505C65.9982 620.33 66.2638 620.33 66.5734 620.505L75.0233 625.325C77.4567 626.728 79.0932 629.707 79.0932 632.599C79.0932 635.929 77.1028 638.996 73.9614 640.267V640.268ZM51.6204 631.504L47.9928 629.401C47.6832 629.226 47.5504 628.963 47.5504 628.612V618.972C47.5504 614.284 51.1781 610.734 56.0888 610.734C57.947 610.734 59.672 611.348 61.1323 612.443L52.4171 617.439C51.8864 617.745 51.6208 618.183 51.6208 618.797V631.504L51.6204 631.504ZM59.4288 635.973L54.2305 633.081V626.947L59.4288 624.055L64.6267 626.947V633.081L59.4288 635.973ZM62.7689 649.294C60.9107 649.294 59.1857 648.681 57.7254 647.585L66.4404 642.59C66.9712 642.283 67.2368 641.845 67.2368 641.231V628.524L70.9089 630.627C71.2185 630.802 71.3512 631.065 71.3512 631.416V641.056C71.3512 645.744 67.679 649.294 62.7689 649.294ZM52.2839 639.523L43.834 634.703C41.4006 633.3 39.764 630.321 39.764 627.429C39.764 624.055 41.799 621.032 44.9398 619.761V629.751C44.9398 630.365 45.2054 630.803 45.7362 631.11L56.7963 637.463L53.1686 639.523C52.8591 639.698 52.5935 639.698 52.2839 639.523ZM51.7976 646.709C46.7985 646.709 43.1265 642.984 43.1265 638.383C43.1265 638.033 43.1709 637.682 43.2148 637.332L51.93 642.327C52.4607 642.634 52.9919 642.634 53.5226 642.327L64.6267 635.974V640.137C64.6267 640.487 64.4939 640.75 64.1843 640.925L55.7344 645.745C54.5841 646.402 53.2126 646.709 51.7972 646.709H51.7976ZM62.7689 651.923C68.1218 651.923 72.5898 648.155 73.6078 643.159C78.5624 641.889 81.7479 637.288 81.7479 632.599C81.7479 629.532 80.4207 626.552 78.0316 624.405C78.2529 623.485 78.3859 622.565 78.3859 621.645C78.3859 615.379 73.2538 610.69 67.3257 610.69C66.1314 610.69 64.9811 610.865 63.8308 611.26C61.8398 609.332 59.0968 608.105 56.0888 608.105C50.7357 608.105 46.2677 611.873 45.2498 616.869C40.2952 618.139 37.1099 622.74 37.1099 627.429C37.1099 630.496 38.4369 633.476 40.8259 635.623C40.6047 636.543 40.4719 637.463 40.4719 638.383C40.4719 644.649 45.6038 649.338 51.532 649.338C52.7263 649.338 53.8766 649.163 55.0269 648.768C57.0174 650.696 59.7604 651.923 62.7689 651.923Z" fill="white"/>
</g>
<defs>
<linearGradient id="paint0_linear_7_2" x1="-6.3192e-07" y1="105.5" x2="595" y2="842" gradientUnits="userSpaceOnUse">
<stop stop-color="white"/>
<stop offset="1" stop-color="#999999"/>
</linearGradient>
<linearGradient id="paint1_linear_7_2" x1="0" y1="53.5" x2="595" y2="53.5" gradientUnits="userSpaceOnUse">
<stop stop-color="#064335"/>
<stop offset="1" stop-color="#75BB96"/>
</linearGradient>
<linearGradient id="paint2_linear_7_2" x1="572" y1="801" x2="16.5917" y2="703.601" gradientUnits="userSpaceOnUse">
<stop stop-color="#EAEAEA"/>
<stop offset="1" stop-color="#B6EDD0"/>
</linearGradient>
<clipPath id="clip0_7_2">
<rect width="45" height="44" fill="white" transform="translate(37 608)"/>
</clipPath>
</defs>
</svg>
